<?xml version="1.0" standalone="no"?>
<!DOCTYPE svg PUBLIC "-//W3C//DTD SVG 20010904//EN"
 "http://www.w3.org/TR/2001/REC-SVG-20010904/DTD/svg10.dtd">
<svg version="1.0" xmlns="http://www.w3.org/2000/svg"
 width="2350.000000pt" height="2258.000000pt" viewBox="0 0 2350.000000 2258.000000"
 preserveAspectRatio="xMidYMid meet">
<metadata>
Created by potrace 1.15, written by Peter Selinger 2001-2017
</metadata>
<g transform="translate(0.000000,2258.000000) scale(0.100000,-0.100000)"
fill="#0D47A1" stroke="none">
<path d="M11401 22539 c-11 -24 -301 -703 -644 -1509 -4671 -10955 -5348
-12539 -6109 -14304 -948 -2199 -1374 -3154 -1712 -3841 -225 -458 -343 -666
-534 -945 -453 -663 -824 -963 -1413 -1145 -189 -59 -383 -102 -801 -176
l-188 -34 0 -292 0 -293 3495 0 3495 0 0 304 0 304 -257 5 c-210 4 -290 10
-428 31 -227 35 -535 97 -725 147 -399 103 -540 177 -747 392 -245 254 -376
559 -376 877 0 147 12 233 59 430 107 436 325 998 1046 2700 195 459 482 1138
639 1508 l284 672 4280 0 4280 0 269 -648 c816 -1962 1085 -2630 1296 -3212
203 -562 316 -969 351 -1270 17 -151 7 -456 -21 -585 -66 -314 -355 -643 -711
-809 -284 -132 -576 -188 -1266 -242 l-223 -18 0 -293 0 -293 4380 0 4380 0 0
304 0 304 -227 5 c-191 4 -248 9 -349 30 -400 83 -804 220 -1068 361 -793 426
-1252 1133 -2311 3561 -242 554 -450 1050 -2435 5795 -1587 3793 -5100 12182
-5104 12186 -1 2 -272 19 -474 30 l-112 6 -19 -43z m-273 -5819 c1767 -4176
3392 -8074 3392 -8135 0 -14 -7482 4 -7497 19 -10 10 3803 8812 3814 8803 1
-1 132 -310 291 -687z"/>
</g>
</svg>
