<?xml version="1.0" standalone="no"?>
<!DOCTYPE svg PUBLIC "-//W3C//DTD SVG 20010904//EN"
 "http://www.w3.org/TR/2001/REC-SVG-20010904/DTD/svg10.dtd">
<svg version="1.0" xmlns="http://www.w3.org/2000/svg"
 width="256.000000pt" height="256.000000pt" viewBox="0 0 256.000000 256.000000"
 preserveAspectRatio="xMidYMid meet">
<metadata>
Created by potrace 1.15, written by Peter Selinger 2001-2017
</metadata>
<g transform="translate(0.000000,256.000000) scale(0.100000,-0.100000)"
fill="#000000" stroke="none">
<path d="M1005 2406 c-110 -29 -178 -55 -273 -107 -298 -159 -514 -454 -578
-787 -18 -97 -18 -330 0 -419 75 -353 288 -635 602 -795 133 -68 298 -118 390
-118 l34 0 0 98 0 98 -70 12 c-347 59 -629 317 -737 670 -24 78 -26 103 -26
247 0 145 2 168 26 248 105 346 381 599 724 665 l83 16 0 98 0 98 -42 0 c-24
-1 -83 -12 -133 -24z"/>
<path d="M1390 2331 l0 -98 51 -7 c65 -9 200 -51 264 -83 193 -97 362 -270
444 -455 63 -142 76 -209 76 -383 0 -137 -4 -171 -23 -240 -76 -264 -254 -476
-497 -595 -91 -45 -237 -90 -292 -90 -22 0 -23 -3 -23 -100 l0 -100 43 0 c62
0 226 45 320 87 134 60 243 136 353 247 169 170 256 329 309 568 14 63 16 112
13 255 -4 157 -8 188 -32 268 -94 312 -295 558 -574 704 -129 66 -307 121
-398 121 l-34 0 0 -99z"/>
<path d="M1170 1988 l0 -93 115 3 115 3 0 90 0 89 -115 0 -115 0 0 -92z"/>
<path d="M920 1993 c-142 -73 -269 -203 -341 -348 -171 -347 -60 -763 264
-984 47 -32 156 -86 160 -80 1 2 1 47 -1 100 l-3 95 -37 20 c-20 10 -69 51
-108 89 -115 115 -173 255 -174 420 0 95 27 202 73 290 35 67 152 189 210 220
l37 20 0 81 c0 46 3 89 6 98 9 24 -6 20 -86 -21z"/>
<path d="M1570 1932 l0 -97 38 -20 c49 -26 171 -149 200 -203 l23 -42 -87 0
-87 0 -57 54 c-90 86 -190 126 -316 126 -223 0 -408 -157 -446 -380 -14 -83 0
-175 39 -259 37 -79 135 -174 220 -214 64 -30 74 -31 188 -32 115 0 123 1 188
32 37 18 91 55 121 83 l53 50 86 0 c48 0 87 -4 87 -8 0 -38 -133 -180 -208
-223 l-42 -24 0 -97 c0 -54 3 -98 6 -98 28 0 180 97 241 154 125 117 202 245
238 398 17 75 20 255 4 330 -16 76 -63 190 -106 256 -75 119 -224 246 -345
297 l-38 15 0 -98z"/>
<path d="M1355 709 c-27 -4 -80 -5 -117 -2 l-68 6 0 -92 0 -91 114 0 115 0 3
93 c2 50 3 92 3 92 0 1 -22 -2 -50 -6z"/>
</g>
</svg>
