<?xml version="1.0" standalone="no"?>
<!DOCTYPE svg PUBLIC "-//W3C//DTD SVG 20010904//EN"
 "http://www.w3.org/TR/2001/REC-SVG-20010904/DTD/svg10.dtd">
<svg version="1.0" xmlns="http://www.w3.org/2000/svg"
 width="615.000000pt" height="615.000000pt" viewBox="0 0 615.000000 615.000000"
 preserveAspectRatio="xMidYMid meet">
<metadata>
Created by potrace 1.15, written by Peter Selinger 2001-2017
</metadata>
<g transform="translate(0.000000,615.000000) scale(0.100000,-0.100000)"
fill="#0D47A1" stroke="none">
<path d="M5301 5861 l-344 -258 -151 78 c-372 192 -745 302 -1159 340 -161 15
-539 6 -697 -16 -357 -49 -657 -142 -960 -296 -586 -298 -1103 -817 -1380
-1384 -145 -295 -224 -557 -267 -880 -24 -183 -24 -591 1 -770 92 -673 378
-1228 884 -1717 490 -472 1045 -739 1732 -835 177 -24 642 -24 825 1 317 42
540 101 790 208 399 171 690 358 952 611 62 60 113 113 113 117 0 4 -37 39
-82 78 l-81 70 -101 -93 c-562 -521 -1283 -811 -1977 -793 -130 3 -163 8 -211
27 -123 48 -240 165 -290 289 l-23 57 0 2360 0 2360 21 57 c66 172 226 302
406 330 59 9 121 9 260 0 499 -32 867 -148 1273 -402 245 -154 447 -318 673
-548 l142 -145 0 706 c0 389 -1 707 -2 707 -2 -1 -158 -117 -347 -259z m-2531
-135 c0 -3 -18 -34 -41 -70 -59 -94 -90 -192 -96 -308 l-6 -98 -333 0 -334 0
0 -320 0 -320 333 -2 332 -3 3 -332 2 -333 -335 0 -335 0 0 -325 0 -325 335 0
335 0 0 -325 0 -325 -335 0 -335 0 0 -325 0 -325 335 0 335 0 0 -325 0 -325
-335 0 -335 0 0 -321 0 -321 -48 28 c-71 41 -258 170 -337 232 -38 31 -118
103 -177 161 l-108 104 0 59 0 58 -55 0 -55 0 -74 99 c-104 140 -316 502 -316
539 0 9 66 12 250 12 l250 0 0 325 0 325 -348 0 -349 0 -19 128 c-19 131 -26
439 -11 495 l7 27 360 0 360 0 0 325 0 325 -290 0 c-188 0 -290 4 -290 10 0
20 108 259 163 361 31 57 82 147 115 199 l58 95 122 3 122 3 0 144 0 144 128
120 c70 66 158 145 197 176 l69 55 138 0 138 0 0 89 0 89 108 55 c197 101 371
167 567 218 111 28 135 33 135 25z m-111 -5090 c12 -56 67 -179 101 -226 l20
-27 -68 14 c-172 36 -361 103 -547 193 -220 107 -232 99 151 100 l331 0 12
-54z"/>
<path d="M1290 4275 l0 -335 335 0 335 0 0 335 0 335 -335 0 -335 0 0 -335z"/>
<path d="M1290 2965 l0 -325 335 0 335 0 0 325 0 325 -335 0 -335 0 0 -325z"/>
<path d="M1290 1665 l0 -325 335 0 335 0 0 325 0 325 -335 0 -335 0 0 -325z"/>
</g>
</svg>
