<?xml version="1.0" standalone="no"?>
<!DOCTYPE svg PUBLIC "-//W3C//DTD SVG 20010904//EN"
 "http://www.w3.org/TR/2001/REC-SVG-20010904/DTD/svg10.dtd">
<svg version="1.0" xmlns="http://www.w3.org/2000/svg"
 width="250.000000pt" height="250.000000pt" viewBox="0 0 250.000000 250.000000"
 preserveAspectRatio="xMidYMid meet">
<metadata>
Created by potrace 1.15, written by Peter Selinger 2001-2017
</metadata>
<g transform="translate(0.000000,250.000000) scale(0.100000,-0.100000)"
fill="#0D47A1" stroke="none">
<path d="M855 1790 l-160 -5 -27 -70 c-39 -101 -55 -175 -39 -184 6 -4 251
-11 543 -14 292 -3 532 -8 534 -10 4 -4 -93 -297 -136 -409 -19 -51 -25 -58
-53 -62 -18 -3 -264 -7 -548 -8 -393 -2 -520 -6 -531 -15 -18 -16 -93 -231
-83 -241 3 -4 301 -8 661 -10 l655 -3 72 38 c39 21 95 61 123 90 45 45 58 68
102 180 27 70 75 205 106 300 80 244 76 330 -17 391 -39 26 -46 27 -201 29
-394 6 -854 8 -1001 3z"/>
<path d="M381 1383 c-16 -32 -71 -194 -71 -212 0 -14 11 -20 46 -25 60 -8 469
-8 556 0 l67 7 21 48 c11 27 28 78 38 114 15 58 15 67 2 75 -9 6 -151 10 -332
10 -292 0 -318 -1 -327 -17z"/>
</g>
</svg>
