<?xml version="1.0" standalone="no"?>
<!DOCTYPE svg PUBLIC "-//W3C//DTD SVG 20010904//EN"
 "http://www.w3.org/TR/2001/REC-SVG-20010904/DTD/svg10.dtd">
<svg version="1.0" xmlns="http://www.w3.org/2000/svg"
 width="2000.000000pt" height="1863.000000pt" viewBox="0 0 2000.000000 1863.000000"
 preserveAspectRatio="xMidYMid meet">
<metadata>
Created by potrace 1.15, written by Peter Selinger 2001-2017
</metadata>
<g transform="translate(0.000000,1863.000000) scale(0.100000,-0.100000)"
fill="#ffffff" stroke="none">
<path d="M3095 16109 c-592 -19 -827 -76 -1024 -246 l-50 -43 -221 0 -220 0 2
-267 3 -267 97 -24 97 -24 0 -276 c0 -245 2 -287 21 -376 63 -291 170 -470
371 -618 79 -59 227 -124 414 -182 201 -63 263 -105 311 -211 13 -27 795
-2705 1739 -5950 943 -3245 1741 -5976 1771 -6070 91 -274 187 -450 315 -576
160 -157 389 -239 669 -239 358 0 616 124 795 383 57 84 132 238 185 383 22
60 517 1566 1101 3348 583 1781 1069 3257 1081 3280 52 105 96 100 146 -17 12
-26 481 -1488 1043 -3250 562 -1761 1040 -3256 1064 -3322 139 -390 286 -592
513 -705 270 -133 684 -133 954 0 113 56 218 149 299 263 61 86 145 264 194
412 26 77 809 2795 1740 6040 931 3245 1703 5929 1714 5964 25 81 73 151 125
184 23 14 122 53 221 87 225 77 342 133 437 208 175 140 269 305 333 592 35
153 35 611 1 755 -69 287 -156 435 -326 560 -83 60 -135 86 -236 118 -249 79
-613 97 -1932 97 -1273 0 -1691 -19 -1917 -89 -131 -40 -266 -114 -329 -180
l-30 -31 -223 0 -223 0 0 -265 0 -265 23 -4 c20 -5 161 -26 169 -26 2 0 4
-129 4 -287 0 -304 1 -313 56 -508 52 -184 151 -334 288 -440 152 -117 341
-181 716 -243 l161 -27 -777 -2850 c-427 -1567 -778 -2855 -781 -2861 -2 -7
-413 1280 -913 2860 -1065 3361 -1107 3492 -1181 3644 -157 326 -338 474 -654
538 -125 25 -383 15 -502 -19 -115 -33 -227 -90 -309 -156 -23 -19 -39 -21
-225 -21 l-201 0 -1138 -3462 c-626 -1905 -1141 -3466 -1145 -3470 -9 -10
-1622 5639 -1621 5679 0 48 16 81 47 96 15 8 99 27 187 42 198 34 396 83 502
124 258 100 436 297 512 566 52 186 53 196 53 503 0 318 -2 338 -64 535 -94
301 -302 480 -640 552 -123 27 -336 44 -664 55 -371 12 -2556 11 -2928 -1z
m3051 -59 c243 -13 404 -31 524 -61 112 -27 269 -104 350 -172 107 -88 205
-237 244 -367 9 -30 25 -85 35 -122 11 -36 22 -106 25 -155 5 -92 2 -80 -23
72 -28 179 -123 371 -241 491 -96 97 -189 154 -327 199 -166 55 -324 73 -758
86 -453 14 -2910 6 -3099 -10 -286 -24 -461 -67 -598 -146 -43 -25 -88 -45
-100 -45 l-23 1 24 20 c43 35 154 93 234 121 140 50 316 73 682 91 176 9 2868
6 3051 -3z m12139 -9 c168 -14 248 -27 365 -58 254 -67 440 -219 541 -442 42
-92 89 -265 94 -341 5 -71 4 -69 -26 75 -72 344 -276 575 -593 669 -229 69
-377 77 -1561 83 -1300 7 -1744 -6 -2000 -56 -112 -22 -252 -77 -330 -130 -16
-12 -41 -21 -55 -21 l-25 1 30 25 c49 41 224 121 315 143 112 28 287 49 490
60 241 13 2594 6 2755 -8z m-12145 -56 c497 -28 691 -88 876 -272 108 -107
214 -305 229 -426 4 -32 0 -25 -15 28 -32 105 -103 242 -165 318 -74 90 -152
150 -260 202 -170 82 -326 111 -679 125 -300 12 -2782 12 -3081 0 -325 -13
-505 -44 -653 -110 -75 -35 -130 -42 -72 -10 57 31 181 77 250 93 254 58 442
64 1980 66 1061 1 1378 -2 1590 -14z m12080 -3 c427 -34 638 -119 812 -326 78
-93 179 -306 178 -373 -1 -10 -11 14 -24 52 -99 297 -281 476 -571 560 -226
65 -447 75 -1780 75 -1475 0 -1645 -11 -1892 -116 -103 -44 -140 -41 -50 4
155 76 312 107 650 127 276 16 2464 13 2677 -3z m-12070 -42 c228 -11 353 -28
480 -66 192 -59 335 -157 444 -306 34 -47 103 -193 111 -233 5 -28 4 -28 -8 5
-59 148 -159 292 -259 371 -111 88 -286 155 -478 185 -171 26 -595 34 -1850
34 -1628 0 -1838 -9 -2076 -84 -87 -28 -123 -33 -83 -11 42 23 195 64 299 81
52 9 169 19 260 23 242 12 2920 12 3160 1z m12189 -14 c294 -39 482 -119 619
-265 49 -52 109 -137 139 -196 30 -58 83 -213 82 -238 0 -12 -12 19 -27 68
-71 232 -222 414 -423 508 -78 36 -216 75 -329 93 -163 24 -580 34 -1565 34
-1299 0 -1531 -10 -1750 -76 -112 -33 -146 -40 -125 -25 28 20 204 70 305 87
173 28 396 32 1690 29 1100 -2 1276 -4 1384 -19z m-12094 -25 c427 -39 635
-135 801 -366 67 -95 145 -288 144 -359 -1 -19 -11 6 -25 63 -104 402 -408
616 -900 636 l-110 4 105 -10 c443 -40 685 -179 827 -475 70 -149 87 -229 87
-429 0 -143 -4 -183 -22 -254 -54 -205 -170 -384 -321 -495 -131 -96 -322
-165 -614 -221 -222 -43 -264 -61 -314 -136 -26 -40 -28 -49 -27 -148 0 -84
-2 -98 -9 -66 -13 61 -3 164 21 212 22 42 79 88 137 111 17 7 111 28 210 47
345 68 530 148 684 298 314 305 337 905 47 1250 -56 67 -145 133 -241 178 -83
39 -257 90 -304 88 -14 0 13 -9 60 -19 191 -41 333 -115 444 -231 133 -139
204 -303 225 -519 36 -376 -136 -724 -439 -883 -121 -64 -264 -109 -482 -152
-219 -43 -236 -47 -288 -85 -49 -36 -71 -68 -87 -128 -11 -40 -13 -43 -13 -17
-1 17 8 48 19 70 11 21 18 40 16 43 -9 8 -35 -45 -45 -88 -12 -60 -23 -186
-12 -145 8 29 9 29 10 4 0 -14 -6 -48 -14 -74 -8 -27 -13 -51 -11 -52 7 -7 26
53 35 107 5 30 9 43 10 29 0 -15 3 -42 6 -60 4 -29 3 -30 -4 -9 -7 20 -9 15
-8 -25 1 -27 -2 -61 -6 -75 -6 -19 -6 -21 2 -10 9 13 11 12 12 -5 l0 -20 9 20
c5 11 7 36 4 55 -2 19 -2 31 1 25 7 -17 1285 -4495 1284 -4503 0 -4 -5 2 -10
13 -7 15 -8 10 -4 -20 3 -26 2 -33 -4 -21 -8 20 -8 20 -13 0 -3 -10 -9 -28
-13 -39 -4 -13 -1 -12 9 5 22 36 19 4 -4 -50 -13 -29 -15 -38 -5 -25 8 10 23
43 32 73 13 41 19 49 24 35 11 -28 9 -52 -2 -28 -7 15 -8 10 -4 -20 3 -26 2
-33 -4 -21 -8 20 -8 20 -13 0 -3 -10 -9 -28 -13 -39 -4 -13 -1 -12 9 5 22 36
19 4 -4 -50 -13 -29 -15 -38 -5 -25 8 10 23 43 32 73 13 41 19 49 24 35 11
-28 9 -52 -2 -28 -7 15 -8 10 -4 -20 3 -26 2 -33 -4 -21 -8 20 -8 20 -13 0 -3
-10 -9 -28 -13 -39 -4 -13 -1 -12 9 5 22 36 19 4 -4 -50 -13 -29 -15 -38 -5
-25 8 10 23 43 32 73 13 41 19 49 24 35 11 -28 9 -52 -2 -28 -7 15 -8 10 -4
-20 3 -26 2 -33 -4 -21 -8 20 -8 20 -13 0 -3 -10 -9 -28 -13 -39 -4 -13 -1
-12 9 5 22 36 19 4 -4 -50 -13 -29 -15 -38 -5 -25 8 10 23 43 32 73 13 41 19
49 24 35 11 -28 9 -52 -2 -28 -7 15 -8 10 -4 -20 3 -26 2 -33 -4 -21 -8 20 -8
20 -13 0 -3 -10 -9 -28 -13 -39 -4 -13 -1 -12 9 5 22 36 19 4 -4 -50 -13 -29
-15 -38 -5 -25 8 10 23 43 32 73 13 41 19 49 24 35 11 -28 9 -52 -2 -28 -7 15
-8 10 -4 -20 3 -26 2 -33 -4 -21 -8 20 -8 20 -13 0 -3 -10 -9 -28 -13 -39 -4
-13 -1 -12 9 5 25 41 19 -1 -9 -56 -19 -38 -20 -44 -5 -26 11 13 27 48 37 79
13 42 19 50 24 36 11 -28 9 -52 -2 -28 -7 15 -8 10 -4 -20 3 -26 2 -33 -4 -21
-8 20 -8 20 -13 0 -3 -10 -9 -28 -13 -39 -4 -13 -1 -12 9 5 25 41 19 -1 -9
-56 -19 -38 -20 -44 -5 -26 11 13 27 48 37 79 13 42 19 50 24 36 11 -28 9 -52
-2 -28 -7 15 -8 10 -4 -20 3 -26 2 -33 -4 -21 -8 20 -8 20 -13 0 -3 -10 -9
-28 -13 -39 -4 -13 -1 -12 9 5 25 41 19 -1 -9 -56 -19 -38 -20 -44 -5 -26 11
13 27 48 37 79 13 42 19 50 24 36 11 -28 9 -52 -2 -28 -7 15 -8 10 -4 -20 3
-26 2 -33 -4 -21 -8 20 -8 20 -13 0 -3 -10 -9 -28 -13 -39 -4 -13 -1 -12 9 5
25 41 19 -1 -9 -56 -19 -38 -20 -44 -5 -26 11 13 27 48 37 79 13 42 19 50 24
36 11 -28 9 -52 -2 -28 -7 15 -8 10 -4 -20 3 -26 2 -33 -4 -21 -8 20 -8 20
-13 0 -3 -10 -9 -28 -13 -39 -4 -13 -1 -12 9 5 25 41 19 -1 -9 -56 -19 -38
-20 -44 -5 -26 11 13 27 48 37 79 13 42 19 50 24 36 11 -28 9 -52 -2 -28 -7
15 -8 10 -4 -20 3 -26 2 -33 -4 -21 -8 20 -8 20 -13 0 -3 -10 -9 -28 -13 -39
-4 -13 -1 -12 9 5 20 33 20 10 0 -38 -8 -20 -10 -32 -5 -27 6 6 19 35 29 64
l18 54 97 -339 c53 -186 106 -369 116 -407 11 -38 15 -64 9 -61 -7 5 -9 0 -6
-14 4 -14 2 -20 -5 -15 -6 4 -8 -2 -5 -15 4 -12 2 -22 -4 -22 -6 0 -7 -7 -4
-16 3 -8 2 -13 -3 -10 -4 3 -13 -7 -20 -22 -11 -26 -11 -26 5 -7 13 15 15 16
11 3 -3 -9 -29 -88 -57 -175 -74 -227 -432 -1320 -492 -1502 l-51 -155 -1344
4703 c-740 2586 -1342 4705 -1339 4708 3 3 376 64 828 134 453 70 824 128 826
128 1 1 2 120 2 266 l0 265 -1442 2 c-794 0 -1535 1 -1648 1 -191 -1 -201 0
-150 12 30 8 102 18 160 24 174 18 180 20 60 15 -66 -2 -166 -15 -235 -29
-131 -27 -186 -31 -115 -9 135 43 376 70 675 78 336 8 2911 -3 3020 -13z
m11965 0 c393 -38 600 -122 756 -310 52 -62 144 -224 144 -252 0 -7 -19 25
-43 72 -49 98 -126 199 -192 253 -153 125 -378 199 -645 211 l-105 4 135 -14
c375 -39 594 -150 739 -374 45 -70 111 -223 110 -254 0 -12 -8 3 -18 33 -72
220 -194 365 -385 460 -98 48 -270 101 -325 99 -14 0 14 -9 62 -19 322 -70
520 -235 623 -520 13 -36 24 -74 24 -85 -1 -11 -11 12 -24 50 -32 101 -101
234 -114 221 -2 -3 9 -27 25 -53 62 -101 114 -270 112 -361 -1 -42 -3 -39 -10
23 -16 127 -67 269 -130 362 -32 46 -37 62 -14 43 8 -7 15 -8 15 -2 0 5 -7 15
-15 22 -12 10 -15 10 -15 -1 0 -7 -26 12 -57 42 -32 31 -78 70 -103 86 -52 35
-130 76 -135 71 -2 -2 25 -18 60 -36 68 -36 196 -137 203 -162 2 -8 -13 1 -34
20 -22 20 -50 44 -64 55 l-25 20 23 -26 c12 -14 20 -28 17 -30 -3 -3 9 -18 25
-34 17 -16 30 -25 30 -20 0 4 9 0 20 -10 11 -10 20 -23 20 -28 0 -6 -9 -2 -20
8 -11 10 -20 14 -20 10 0 -5 -19 9 -42 30 l-43 40 39 -42 c22 -23 43 -40 46
-38 4 3 13 -2 20 -10 7 -8 16 -13 20 -10 5 3 18 -7 30 -22 l22 -28 -17 28 c-9
16 -14 31 -11 34 5 6 46 -56 46 -70 0 -5 -5 -5 -11 -1 -6 3 -4 -8 5 -24 20
-38 21 -66 1 -32 -8 14 -14 19 -15 11 0 -11 -4 -10 -15 5 -14 18 -14 17 -3 -9
7 -17 14 -23 19 -16 4 8 9 4 14 -11 5 -16 9 -19 15 -10 6 9 10 6 15 -9 4 -13
9 -21 11 -18 3 2 -5 26 -16 52 -11 26 -19 50 -16 52 8 8 65 -145 82 -222 24
-107 24 -292 -1 -400 -23 -104 -89 -274 -102 -262 -2 3 5 23 16 46 12 22 21
44 21 48 -1 4 -14 -18 -31 -49 -16 -32 -32 -58 -35 -58 -3 0 -4 6 -1 14 6 15
-17 16 -30 1 -4 -4 -2 -5 6 0 9 5 12 3 9 -6 -3 -8 -10 -15 -16 -15 -7 -1 -14
-3 -17 -4 -3 -1 -9 -3 -14 -4 -5 0 -12 -4 -16 -8 -9 -9 16 -5 33 5 17 11 15
-8 -3 -23 -8 -7 -15 -9 -15 -5 0 4 -6 2 -13 -4 -8 -6 -16 -9 -19 -6 -2 3 -22
-14 -44 -38 l-39 -42 38 34 c20 19 37 31 37 26 0 -4 9 0 20 10 43 39 17 -3
-37 -60 l-58 -60 63 60 c78 75 81 61 5 -20 l-58 -60 63 60 c34 33 62 54 62 48
0 -6 -35 -44 -77 -84 -43 -40 -70 -67 -60 -60 9 8 20 12 23 9 11 -11 -86 -72
-211 -134 -71 -35 -125 -64 -119 -64 5 0 68 29 140 64 138 69 227 127 206 134
-10 3 -7 11 9 28 12 13 27 24 32 24 6 0 0 -11 -13 -25 -13 -14 -19 -25 -15
-25 13 0 115 102 115 114 0 6 -18 -8 -40 -29 -22 -21 -40 -35 -40 -29 0 16 80
90 80 74 1 -9 11 -3 25 15 14 17 25 35 25 40 -1 6 -12 -3 -25 -20 -37 -45 -30
-24 15 46 41 64 52 72 24 18 -8 -17 -13 -33 -10 -36 8 -8 83 148 101 212 10
33 23 91 30 129 9 48 13 60 14 36 1 -50 -34 -182 -72 -270 -87 -201 -240 -353
-460 -455 -93 -43 -265 -115 -274 -115 -5 0 6 9 22 20 43 29 18 24 -30 -5 -48
-30 -74 -33 -27 -4 35 23 44 36 13 19 -26 -13 -34 -13 -25 3 4 6 4 9 0 5 -4
-3 -8 -10 -8 -15 0 -12 -19 -33 -30 -33 -6 0 -4 8 3 18 13 15 12 16 -3 3 -10
-7 -16 -17 -13 -21 2 -4 -4 -15 -15 -25 -11 -10 -18 -21 -15 -25 2 -4 -7 -18
-20 -30 -14 -13 -25 -20 -25 -16 0 4 -6 4 -12 -1 -7 -4 -16 -8 -20 -9 -5 -1
-10 -3 -13 -4 -14 -7 -32 -5 -45 4 -13 10 -13 9 -1 -6 7 -10 17 -15 22 -12 5
3 9 1 9 -4 0 -16 -13 -22 -27 -11 -7 6 -13 8 -13 4 0 -4 -8 -1 -17 6 -16 11
-16 11 -5 -1 7 -8 18 -15 24 -15 6 0 13 -5 15 -12 5 -13 -14 -12 -37 2 -13 7
-13 6 -2 -7 7 -9 22 -15 34 -13 14 3 18 0 14 -11 -4 -9 -2 -12 5 -8 7 4 10 1
7 -7 -3 -8 -14 -13 -26 -13 -18 1 -20 -2 -11 -18 6 -10 7 -29 4 -41 -3 -12 6
-1 20 26 21 38 23 51 14 68 -6 11 -8 23 -5 27 3 3 6 0 6 -7 0 -7 5 -9 10 -6 6
3 10 11 10 16 0 6 -4 7 -10 4 -6 -4 -7 1 -3 11 5 13 8 14 11 5 3 -10 10 -7 24
10 17 20 19 21 13 4 -4 -14 7 -8 37 20 24 23 31 27 15 9 -39 -43 -33 -54 8
-14 22 21 31 36 24 41 -7 4 7 19 34 38 48 33 63 38 51 19 -5 -7 -2 -9 7 -5
383 160 487 220 600 345 101 112 178 269 213 432 8 36 15 53 15 38 2 -49 -47
-205 -89 -288 -113 -222 -272 -350 -599 -484 -62 -26 -133 -58 -156 -72 -67
-39 -146 -126 -192 -211 -24 -43 -43 -74 -43 -70 0 14 51 111 77 145 14 18 23
36 20 38 -9 9 -56 -62 -91 -137 -42 -90 -64 -164 -281 -922 l-168 -589 -23 62
c-12 34 -27 67 -34 74 -6 6 -2 -9 9 -34 24 -53 27 -87 5 -50 -10 17 -13 18 -9
5 4 -11 10 -29 13 -39 5 -20 5 -20 13 0 6 12 7 5 4 -21 -4 -32 -3 -36 5 -20
l10 20 -3 -20 c-2 -11 -75 -269 -162 -573 l-158 -554 -23 62 c-12 34 -27 67
-34 74 -6 6 -2 -9 9 -34 24 -53 27 -87 5 -50 -10 17 -13 18 -9 5 4 -11 10 -29
13 -39 5 -20 5 -20 13 0 6 12 7 5 4 -21 -4 -32 -3 -36 5 -20 l10 20 -3 -20
c-2 -11 -75 -269 -162 -573 l-158 -554 -23 62 c-12 34 -27 67 -34 74 -6 6 -2
-9 9 -34 24 -53 27 -87 5 -50 -10 17 -13 18 -9 5 4 -11 10 -29 13 -39 5 -20 5
-20 13 0 6 12 7 5 4 -21 -4 -32 -3 -36 5 -20 l10 20 -3 -20 c-2 -11 -71 -253
-152 -538 l-148 -519 -23 62 c-12 34 -27 67 -34 74 -6 6 -2 -9 9 -34 24 -53
27 -87 5 -50 -10 17 -13 18 -9 5 4 -11 10 -29 13 -39 5 -20 5 -20 13 0 6 12 7
5 4 -21 -4 -32 -3 -36 5 -20 l10 20 -3 -20 c-2 -11 -75 -269 -162 -573 l-158
-554 -23 62 c-12 34 -27 67 -34 74 -6 6 -2 -9 9 -34 24 -53 27 -87 5 -50 -10
17 -13 18 -9 5 4 -11 10 -29 13 -39 5 -20 5 -20 13 0 6 12 7 5 4 -21 -4 -32
-3 -36 5 -20 l10 20 -3 -20 c-2 -11 -75 -269 -162 -573 l-158 -554 -23 62
c-12 34 -27 67 -34 74 -6 6 -2 -9 9 -34 24 -53 27 -87 5 -50 -10 17 -13 18 -9
5 4 -11 10 -29 13 -39 5 -20 5 -20 13 0 6 12 7 5 4 -21 -4 -32 -3 -36 5 -20
l10 20 -3 -20 c-2 -11 -71 -253 -152 -538 l-148 -519 -23 62 c-12 34 -27 67
-34 74 -6 6 -2 -9 9 -34 24 -53 27 -87 5 -50 -10 17 -13 18 -9 5 4 -11 10 -29
13 -39 5 -20 5 -20 13 0 6 12 7 5 4 -21 -4 -32 -3 -36 5 -20 l10 20 -3 -20
c-2 -11 -75 -269 -162 -573 l-158 -554 -23 62 c-12 34 -27 67 -34 74 -6 6 -2
-9 9 -34 24 -53 27 -87 5 -50 -10 17 -13 18 -9 5 4 -11 10 -29 13 -39 5 -20 5
-20 13 0 6 12 7 5 4 -21 -4 -32 -3 -36 5 -20 l10 20 -3 -20 c-2 -11 -75 -269
-162 -573 l-158 -554 -23 62 c-12 34 -27 67 -34 74 -6 6 -2 -9 9 -34 24 -53
27 -87 5 -50 -10 17 -13 18 -9 5 4 -11 10 -29 13 -39 5 -20 5 -20 13 0 6 12 7
5 4 -21 -4 -30 -3 -35 4 -20 5 11 10 16 10 12 2 -17 -310 -1090 -355 -1226
-79 -237 -134 -356 -231 -501 -49 -73 -149 -179 -208 -220 -270 -186 -620
-169 -872 41 -173 144 -327 428 -458 844 l-22 71 33 0 c37 0 39 -3 24 -26 -9
-13 -10 -13 -10 0 0 11 -4 10 -12 -4 -8 -15 -7 -32 8 -74 14 -43 20 -50 26
-36 5 12 6 6 3 -16 -4 -28 -3 -31 5 -15 8 16 9 13 5 -15 -4 -28 -3 -31 5 -15
8 17 9 15 5 -10 -2 -16 2 -43 10 -60 15 -29 15 -29 10 -3 -6 32 4 65 15 48 5
-8 9 -7 13 5 4 9 3 13 -3 10 -6 -3 -10 0 -10 7 0 9 -3 9 -10 -2 -18 -28 -11 9
10 50 11 22 18 40 15 40 -2 0 -13 -17 -24 -38 -11 -20 -20 -30 -20 -22 -1 8
10 34 24 58 13 23 20 40 15 37 -6 -4 -19 -23 -30 -43 -10 -20 -19 -31 -20 -24
0 7 7 26 15 42 20 38 11 40 -9 3 -20 -37 -20 -11 -1 27 20 38 11 40 -9 3 -20
-37 -20 -11 -1 27 20 38 11 40 -9 3 -18 -32 -21 -16 -5 21 11 23 14 24 138 25
69 1 129 5 132 9 3 4 101 340 217 747 116 407 330 1154 475 1660 803 2794
2280 7940 2758 9609 137 479 251 871 253 873 2 2 224 62 492 132 l489 128 3
267 2 266 -1152 2 c-634 0 -1245 1 -1358 1 -192 0 -201 1 -150 13 47 12 108
19 300 37 19 2 8 5 -25 5 -71 2 -201 -13 -300 -34 -38 -8 -88 -17 -110 -20
-36 -3 -34 -2 20 16 120 40 280 60 570 70 305 12 2399 4 2535 -9z m-10989
-684 c51 -291 17 -551 -103 -778 -76 -144 -211 -278 -353 -351 -135 -69 -342
-128 -613 -174 -113 -19 -146 -35 -187 -88 -22 -29 -29 -52 -36 -114 l-8 -77
3 76 c3 90 26 136 86 174 46 29 75 37 280 76 459 87 692 233 837 524 72 144
103 293 103 490 0 102 -6 164 -20 229 -23 102 -23 108 -9 83 6 -10 14 -41 20
-70z m7338 -42 c-5 -22 -12 -94 -15 -160 -16 -329 117 -629 349 -787 99 -67
279 -145 377 -162 19 -4 -10 9 -65 28 -241 82 -372 170 -481 322 -106 148
-153 294 -161 498 -6 135 9 306 26 306 5 0 2 -30 -5 -67 -18 -90 -17 -284 0
-375 55 -282 213 -489 461 -604 42 -19 79 -33 81 -31 3 2 -21 15 -52 27 -61
25 -190 106 -213 133 -22 27 -4 20 52 -22 51 -38 97 -65 97 -58 0 2 -24 19
-52 37 -59 38 -178 147 -178 164 0 6 28 -16 62 -49 l63 -60 -53 55 c-70 75
-66 88 6 20 l57 -55 -54 57 c-30 32 -57 55 -59 53 -7 -7 -32 15 -32 27 0 6 8
4 18 -3 14 -11 15 -11 5 1 -16 18 -17 34 -1 24 7 -4 8 -3 4 5 -4 6 -11 9 -16
6 -5 -3 -14 3 -19 14 -13 23 -14 34 -3 27 4 -2 8 3 8 13 0 10 -6 18 -12 18 -7
0 -10 -7 -6 -15 4 -11 1 -13 -7 -7 -10 6 -11 3 -1 -15 6 -12 9 -24 6 -27 -2
-3 -18 21 -35 53 -16 33 -30 55 -31 51 0 -4 9 -26 21 -48 11 -23 18 -43 15
-47 -11 -10 -47 88 -41 111 4 15 4 18 -3 8 -13 -19 -35 48 -27 85 4 22 3 24
-3 9 -10 -22 -9 -26 -33 103 -20 106 8 418 32 357 6 -17 8 -17 8 -2 1 18 35
24 46 7 3 -5 11 -7 18 -5 14 6 1155 -160 1164 -168 5 -5 -246 -944 -264 -987
-3 -8 -5 -18 -5 -22 3 -12 -19 -10 -159 18 -72 14 -133 23 -135 21 -5 -4 65
-20 194 -43 50 -9 92 -20 92 -25 0 -11 18 -14 -164 21 -453 88 -673 231 -816
532 -45 95 -65 164 -81 287 -13 94 -6 291 12 354 14 50 21 43 8 -8z m-12551
-75 c-14 -93 -3 -299 22 -398 41 -169 117 -306 234 -422 86 -85 180 -146 324
-210 64 -29 150 -67 191 -86 41 -19 76 -32 78 -30 7 6 -57 38 -163 81 -190 78
-327 160 -403 239 -45 46 -34 47 16 1 59 -56 163 -122 267 -170 135 -63 133
-55 -4 13 -146 73 -198 109 -287 199 -40 41 -73 70 -73 66 0 -4 12 -19 27 -35
14 -15 24 -30 21 -34 -11 -11 -97 110 -137 191 -45 92 -75 180 -92 268 -21
112 -13 397 11 397 4 0 4 -19 -2 -42 -5 -24 -10 -99 -10 -168 0 -140 17 -238
63 -364 33 -93 107 -216 118 -198 4 8 20 -4 44 -33 40 -48 147 -137 210 -174
60 -37 42 -17 -25 27 -64 41 -120 92 -101 92 6 0 16 -7 23 -15 7 -9 27 -25 44
-37 20 -12 15 -6 -12 17 -23 20 -40 40 -37 44 2 5 -9 21 -25 36 -17 16 -30 33
-30 39 0 5 19 -8 43 -29 l42 -40 -44 47 c-25 26 -47 45 -49 43 -7 -7 -32 15
-32 27 0 6 7 5 15 -2 8 -7 15 -9 15 -5 0 4 7 2 15 -5 8 -7 15 -9 15 -5 0 4 8
1 18 -6 15 -13 16 -12 3 4 -8 9 -16 15 -19 12 -3 -3 -11 0 -19 6 -7 6 -13 8
-13 4 0 -4 -7 -2 -15 5 -8 7 -15 9 -15 5 0 -4 -8 -1 -17 6 -15 11 -16 11 -5
-1 6 -8 12 -19 12 -24 -1 -13 -40 32 -40 46 0 5 4 6 10 3 6 -4 7 1 3 11 -5 13
-3 15 8 9 8 -5 11 -4 6 0 -13 15 -36 14 -30 -1 3 -8 2 -14 -1 -14 -14 0 -57
103 -51 123 5 17 4 19 -4 7 -9 -12 -11 -13 -11 -1 0 8 -3 12 -6 8 -3 -3 6 -31
20 -63 29 -63 30 -68 16 -59 -15 9 -12 -9 6 -31 14 -18 15 -18 8 6 -6 24 -6
24 10 5 17 -23 21 -39 6 -30 -5 3 -10 2 -10 -4 0 -5 5 -13 10 -16 6 -3 10 -12
10 -18 -1 -37 -97 145 -128 243 -35 113 -45 198 -40 344 3 79 9 141 15 147 8
8 10 -1 7 -32 l-4 -44 12 45 c9 37 12 42 19 25 4 -11 8 -15 8 -8 1 7 11 10 24
7 60 -10 441 -114 447 -121 4 -4 64 -204 133 -443 145 -506 141 -490 140 -512
0 -10 4 -18 8 -18 5 0 9 -5 9 -11 0 -5 -5 -7 -12 -3 -7 4 -8 3 -4 -4 10 -16 1
-15 -35 4 -17 8 -33 14 -35 12 -2 -2 17 -14 42 -26 25 -12 43 -18 39 -12 -3 5
-2 10 3 10 5 0 12 -9 15 -20 7 -25 8 -26 -64 11 -34 17 -63 29 -65 26 -2 -2
23 -16 56 -32 61 -29 116 -73 74 -59 -15 5 -14 2 6 -16 30 -26 22 -24 -55 16
-33 18 -111 52 -173 78 -193 79 -304 149 -408 258 -110 114 -180 246 -226 421
-19 69 -22 110 -23 257 0 96 3 184 8 194 13 33 15 13 5 -54z m9260 -100 c96
-27 188 -71 264 -127 191 -141 299 -326 453 -778 108 -317 1961 -6181 1957
-6190 -4 -6 -7 -6 -8 0 -19 64 -1893 5974 -1941 6120 -105 319 -193 510 -294
642 -78 100 -184 190 -283 238 -134 66 -223 86 -386 87 -240 1 -388 -51 -562
-195 -40 -32 -48 -36 -48 -20 0 11 24 40 55 67 94 81 260 154 398 177 89 14
313 2 395 -21z m-148 -51 c323 -40 543 -225 710 -599 45 -101 133 -340 127
-346 -2 -2 -25 55 -51 128 -199 551 -471 798 -881 798 -210 0 -364 -56 -528
-193 -69 -59 -68 -39 2 24 112 102 257 168 411 188 94 12 116 12 210 0z m87
-69 c252 -60 437 -234 585 -547 27 -58 48 -107 45 -109 -2 -2 -18 28 -36 68
-74 167 -185 324 -299 420 -74 63 -169 112 -281 144 -84 24 -104 26 -224 22
-110 -4 -145 -9 -211 -32 -99 -34 -194 -89 -268 -156 -32 -28 -58 -47 -58 -42
0 33 197 174 290 207 134 49 317 59 457 25z m38 -54 c233 -75 409 -257 546
-567 47 -108 149 -382 149 -401 -1 -7 -27 59 -59 147 -70 191 -80 214 -138
329 -65 131 -115 200 -213 298 -72 72 -103 94 -181 132 -131 63 -206 79 -354
74 -185 -7 -313 -58 -462 -185 -74 -63 -83 -60 -15 4 93 89 225 160 344 188
100 23 283 14 383 -19z m-3919 -58 c-6 -76 -21 -143 -63 -283 -41 -137 -144
-292 -254 -385 -163 -136 -370 -212 -748 -275 -86 -15 -167 -32 -180 -38 -36
-18 -61 -66 -61 -117 0 -30 283 -1033 825 -2930 454 -1587 824 -2892 823
-2900 -5 -24 -1651 5747 -1656 5806 -7 81 21 140 81 171 16 8 67 21 115 29
399 67 611 142 780 276 139 111 259 315 301 513 6 28 15 71 21 97 5 26 10 63
10 82 0 20 3 36 6 36 4 0 4 -37 0 -82z m-5465 -28 c33 -177 56 -254 107 -355
121 -244 300 -386 637 -505 66 -23 145 -55 176 -71 81 -40 151 -121 187 -217
17 -42 791 -2694 1722 -5892 930 -3198 1718 -5896 1751 -5995 187 -560 415
-796 824 -855 100 -14 178 -12 286 6 218 38 372 124 511 288 115 135 208 316
307 601 24 66 506 1535 1071 3265 566 1730 1044 3183 1061 3230 44 120 84 180
118 180 33 0 50 -18 84 -85 38 -76 30 -51 1102 -3415 554 -1735 1029 -3216
1057 -3290 204 -548 481 -782 928 -784 264 -2 470 80 632 252 131 139 219 304
317 598 33 99 814 2807 1736 6019 1132 3947 1686 5863 1709 5911 61 128 133
181 346 254 217 74 357 156 476 276 136 138 224 325 273 584 l10 55 -4 -70
c-2 -38 -13 -101 -25 -140 -11 -38 -26 -88 -32 -110 -18 -61 -83 -190 -132
-258 -126 -176 -283 -274 -616 -387 -171 -58 -237 -108 -291 -225 -15 -33
-753 -2587 -1639 -5675 -1778 -6196 -1773 -6179 -1829 -6335 -93 -260 -170
-400 -288 -525 -123 -131 -255 -204 -437 -240 -213 -43 -432 -17 -616 72 -94
46 -116 62 -205 152 -153 154 -224 282 -345 626 -32 91 -511 1585 -1065 3320
-553 1735 -1017 3188 -1032 3228 -65 181 -123 210 -184 91 -38 -77 42 165
-1109 -3354 -970 -2966 -1079 -3296 -1142 -3455 -187 -473 -481 -700 -908
-700 -256 0 -457 78 -618 239 -125 125 -216 284 -306 536 -54 151 35 -154
-1945 6650 -841 2893 -1539 5287 -1551 5320 -28 82 -80 157 -134 194 -42 29
-213 101 -239 101 -30 0 -231 92 -312 142 -96 60 -200 158 -263 248 -96 138
-182 408 -180 565 0 22 2 29 4 15 2 -14 9 -50 15 -80z m12539 0 c22 -140 53
-236 110 -350 99 -197 254 -330 488 -420 85 -33 333 -93 462 -111 88 -13 111
-22 95 -38 -19 -19 -411 62 -557 114 -140 50 -290 145 -369 233 -78 85 -176
264 -194 352 -4 19 -15 62 -25 96 -10 33 -21 99 -24 145 -6 93 -3 90 14 -21z
m-3192 59 c269 -72 457 -284 619 -697 24 -63 43 -116 41 -118 -3 -2 -24 47
-47 109 -95 245 -223 450 -347 551 -134 109 -329 175 -489 163 -182 -14 -320
-75 -452 -201 -24 -22 -45 -37 -48 -34 -3 3 22 31 57 63 187 169 426 228 666
164z m-23 -25 c79 -19 208 -83 270 -135 138 -115 248 -286 348 -539 50 -129
65 -174 48 -150 -16 23 -13 -1 9 -65 18 -53 19 -115 1 -86 -5 7 -12 1 -19 -16
-11 -26 -11 -27 3 -9 17 23 20 5 4 -26 -7 -13 -7 -18 -1 -14 6 3 16 23 23 43
11 36 12 36 21 14 4 -13 6 -33 3 -45 -5 -17 -4 -18 4 -6 19 26 13 -10 -9 -57
-21 -48 -19 -58 4 -15 20 36 20 10 1 -28 -20 -38 -11 -40 9 -2 8 15 15 20 15
12 1 -8 -10 -34 -24 -58 -13 -23 -20 -40 -15 -37 6 4 19 23 30 43 10 20 19 31
20 24 0 -7 -9 -31 -20 -52 -26 -51 -17 -52 10 -2 20 36 21 36 15 7 -4 -22 -3
-26 5 -15 13 20 13 -1 0 -35 -7 -17 -7 -24 0 -20 13 8 13 -11 -1 -37 -7 -13
-7 -18 -1 -14 6 3 16 23 23 43 10 33 13 35 20 18 4 -11 8 -27 8 -35 0 -11 -2
-11 -7 2 -5 13 -11 8 -24 -23 -19 -45 -16 -52 6 -11 20 36 20 10 1 -28 -20
-38 -11 -40 9 -2 23 41 19 7 -4 -38 -11 -22 -18 -40 -15 -40 2 0 13 17 24 38
11 20 20 31 21 24 0 -7 -9 -31 -20 -52 -26 -51 -17 -52 10 -2 20 36 21 36 15
7 -4 -22 -3 -26 5 -15 13 19 13 -1 0 -34 -5 -14 -7 -26 -5 -26 7 0 23 43 30
78 5 23 4 24 -5 7 -8 -16 -9 -13 -5 15 4 28 3 31 -5 15 -8 -16 -9 -13 -5 15 4
28 3 31 -5 15 -8 -16 -9 -13 -5 15 4 27 3 30 -4 15 -11 -24 -13 1 -3 28 6 13
15 -6 35 -66 27 -83 34 -120 16 -82 -7 16 -8 13 -4 -14 3 -21 -2 -49 -14 -77
-22 -49 -20 -59 3 -16 20 36 20 10 1 -28 -20 -38 -11 -40 9 -2 23 41 19 7 -4
-38 -11 -22 -18 -40 -15 -40 2 0 13 17 24 38 11 20 20 31 21 24 0 -7 -9 -31
-20 -52 -11 -22 -18 -40 -15 -40 2 0 13 17 24 38 21 39 28 31 11 -13 -7 -17
-7 -24 0 -20 13 8 13 -11 -1 -37 -7 -13 -7 -18 -1 -14 6 3 16 23 23 43 10 33
13 35 20 18 4 -11 8 -27 8 -35 0 -11 -2 -11 -7 2 -5 13 -11 8 -24 -23 -19 -45
-16 -52 6 -11 20 36 20 10 1 -28 -20 -38 -11 -40 9 -2 23 41 19 7 -4 -38 -11
-22 -18 -40 -15 -40 2 0 13 17 24 38 11 20 20 31 21 24 0 -7 -9 -31 -20 -52
-26 -51 -17 -52 10 -2 20 36 21 36 15 7 -4 -22 -3 -26 5 -15 13 19 13 -1 0
-34 -5 -14 -7 -26 -5 -26 7 0 23 43 30 78 5 23 4 24 -5 7 -8 -16 -9 -13 -5 15
4 28 3 31 -5 15 -8 -16 -9 -13 -5 15 4 28 3 31 -5 15 -8 -16 -9 -13 -5 15 4
27 3 30 -4 15 -11 -24 -13 1 -3 28 6 13 16 -7 36 -68 15 -48 25 -89 22 -92 -3
-4 -6 2 -6 12 0 25 -6 16 -14 -20 -5 -22 -4 -26 4 -15 18 27 12 -10 -10 -57
-21 -48 -19 -58 4 -15 20 36 20 10 1 -28 -20 -38 -11 -40 9 -2 23 41 19 7 -4
-38 -26 -51 -17 -52 10 -2 20 34 22 25 5 -23 -4 -13 -1 -12 9 5 17 28 21 14 6
-25 -7 -17 -7 -24 0 -20 13 8 13 -11 -1 -37 -7 -13 -7 -18 -1 -14 6 3 16 23
23 43 10 33 13 35 20 18 4 -11 8 -27 8 -35 0 -11 -2 -11 -7 2 -5 13 -11 8 -24
-23 -19 -45 -16 -52 6 -11 20 36 20 10 1 -28 -20 -38 -11 -40 9 -2 23 41 19 7
-4 -38 -11 -22 -18 -40 -15 -40 2 0 13 17 24 38 11 20 20 31 21 24 0 -7 -9
-31 -20 -52 -26 -51 -17 -52 10 -2 20 36 21 36 15 7 -4 -22 -3 -26 5 -15 15
23 13 -4 -5 -46 -8 -19 -10 -32 -6 -29 5 3 16 26 25 52 17 50 21 81 5 48 -7
-15 -8 -12 -4 15 4 28 3 31 -5 15 -8 -16 -9 -13 -5 15 4 28 3 31 -5 15 -8 -16
-9 -13 -5 15 4 27 3 30 -4 15 -11 -24 -13 1 -3 28 6 13 16 -7 36 -68 15 -48
25 -89 22 -92 -3 -4 -6 2 -6 12 0 25 -6 16 -14 -20 -5 -22 -4 -26 4 -15 18 27
12 -10 -10 -57 -21 -48 -19 -58 4 -15 8 15 15 20 15 12 1 -8 -10 -34 -24 -58
-13 -23 -20 -40 -15 -37 6 4 19 23 30 43 10 20 19 31 20 24 0 -7 -9 -31 -20
-52 -26 -51 -17 -52 10 -2 20 34 22 25 5 -23 -4 -13 -1 -12 9 5 17 28 21 14 6
-25 -7 -17 -7 -24 0 -20 13 8 13 -11 -1 -37 -7 -13 -7 -18 -1 -14 6 3 16 23
23 43 10 33 13 35 20 18 4 -11 8 -27 8 -35 0 -11 -2 -11 -7 2 -5 13 -11 8 -24
-23 -19 -45 -16 -52 6 -11 20 36 20 10 1 -28 -20 -38 -11 -40 9 -2 23 41 19 7
-4 -38 -11 -22 -18 -40 -15 -40 2 0 13 17 24 38 11 20 20 31 21 24 0 -7 -9
-31 -20 -52 -26 -51 -17 -52 10 -2 20 36 21 36 15 7 -4 -22 -3 -26 5 -15 15
23 13 -4 -5 -46 -8 -19 -10 -32 -6 -29 5 3 16 26 25 52 17 50 21 81 5 48 -7
-15 -8 -12 -4 15 4 28 3 31 -5 15 -8 -16 -9 -13 -5 15 4 28 3 31 -5 15 -8 -16
-9 -13 -5 15 4 27 3 30 -4 15 -11 -24 -13 1 -3 28 6 13 16 -7 36 -68 15 -48
25 -89 22 -92 -3 -4 -6 2 -6 12 0 25 -6 16 -14 -20 -5 -22 -4 -26 4 -15 18 27
12 -10 -10 -57 -21 -48 -19 -58 4 -15 8 15 15 20 15 12 1 -8 -10 -34 -24 -58
-13 -23 -20 -40 -15 -37 6 4 19 23 30 43 10 20 19 31 20 24 0 -7 -9 -31 -20
-52 -26 -51 -17 -52 10 -2 20 36 21 36 15 7 -4 -22 -3 -26 5 -15 13 20 13 -1
0 -35 -7 -17 -7 -24 0 -20 13 8 13 -11 -1 -37 -7 -13 -7 -18 -1 -14 6 3 16 23
23 43 10 33 13 35 20 18 4 -11 8 -27 8 -35 0 -11 -2 -11 -7 2 -5 13 -11 8 -24
-23 -19 -45 -16 -52 6 -11 20 36 20 10 1 -28 -20 -38 -11 -40 9 -2 23 41 19 7
-4 -38 -11 -22 -18 -40 -15 -40 2 0 13 17 24 38 11 20 20 31 21 24 0 -7 -9
-31 -20 -52 -11 -22 -18 -40 -15 -40 2 0 13 17 24 38 21 39 28 31 11 -13 -7
-17 -7 -24 0 -20 13 8 13 -11 0 -36 -6 -10 -8 -19 -6 -19 14 0 29 49 31 99 2
39 0 50 -6 36 -7 -15 -8 -11 -4 15 4 28 3 31 -5 15 -8 -16 -9 -13 -5 15 4 27
3 30 -4 15 -11 -24 -13 1 -3 28 6 13 16 -7 36 -68 15 -48 25 -89 22 -92 -3 -4
-6 2 -6 12 0 25 -6 16 -14 -20 -5 -22 -4 -26 4 -15 18 27 12 -10 -10 -57 -21
-48 -19 -58 4 -15 8 15 15 20 15 12 1 -8 -10 -34 -24 -58 -13 -23 -20 -40 -15
-37 6 4 19 23 30 43 10 20 19 31 20 24 0 -7 -9 -31 -20 -52 -26 -51 -17 -52
10 -2 20 36 21 36 15 7 -4 -22 -3 -26 5 -15 13 20 13 -1 0 -35 -7 -17 -7 -24
0 -20 13 8 13 -11 -1 -37 -7 -13 -7 -18 -1 -14 6 3 16 23 23 43 10 33 13 35
20 18 4 -11 8 -27 8 -35 0 -11 -2 -11 -7 2 -5 13 -11 8 -24 -23 -19 -45 -16
-52 6 -11 20 36 20 10 1 -28 -20 -38 -11 -40 9 -2 23 41 19 7 -4 -38 -11 -22
-18 -40 -15 -40 2 0 13 17 24 38 11 20 20 31 21 24 0 -7 -9 -31 -20 -52 -11
-22 -18 -40 -15 -40 2 0 13 17 24 38 21 39 28 31 11 -13 -7 -17 -7 -24 0 -20
13 8 13 -11 -1 -37 -7 -13 -7 -18 -1 -14 6 3 16 23 23 43 10 33 13 35 20 18 4
-11 8 -27 8 -35 0 -11 -2 -11 -7 2 -5 13 -11 8 -24 -23 -19 -45 -16 -52 6 -11
20 36 20 10 1 -28 -20 -38 -11 -40 9 -2 23 41 19 7 -4 -38 -11 -22 -18 -40
-15 -40 2 0 13 17 24 38 11 20 20 31 21 24 0 -7 -9 -31 -20 -52 -26 -51 -17
-52 10 -2 20 36 21 36 15 7 -4 -22 -3 -26 5 -15 13 19 13 -1 0 -34 -5 -14 -7
-26 -5 -26 7 0 23 43 30 78 5 23 4 24 -5 7 -8 -16 -9 -13 -5 15 4 28 3 31 -5
15 -8 -16 -9 -13 -5 15 4 28 3 31 -5 15 -8 -16 -9 -13 -5 15 4 27 3 30 -4 15
-11 -24 -13 1 -3 28 6 13 15 -6 35 -66 27 -83 34 -120 16 -82 -7 16 -8 13 -4
-14 3 -21 -2 -49 -14 -77 -22 -49 -20 -59 3 -16 20 36 20 10 1 -28 -20 -38
-11 -40 9 -2 23 41 19 7 -4 -38 -11 -22 -18 -40 -15 -40 2 0 13 17 24 38 11
20 20 31 21 24 0 -7 -9 -31 -20 -52 -11 -22 -18 -40 -15 -40 2 0 13 17 24 38
21 39 28 31 11 -13 -7 -17 -7 -24 0 -20 13 8 13 -11 -1 -37 -7 -13 -7 -18 -1
-14 6 3 16 23 23 43 10 33 13 35 20 18 4 -11 8 -27 8 -35 0 -11 -2 -11 -7 2
-5 13 -11 8 -24 -23 -19 -45 -16 -52 6 -11 20 36 20 10 1 -28 -20 -38 -11 -40
9 -2 23 41 19 7 -4 -38 -11 -22 -18 -40 -15 -40 2 0 13 17 24 38 11 20 20 31
21 24 0 -7 -9 -31 -20 -52 -26 -51 -17 -52 10 -2 20 36 21 36 15 7 -4 -22 -3
-26 5 -15 13 19 13 -1 0 -34 -5 -14 -7 -26 -5 -26 7 0 23 43 30 78 5 23 4 24
-5 7 -8 -16 -9 -13 -5 15 4 28 3 31 -5 15 -8 -16 -9 -13 -5 15 4 28 3 31 -5
15 -8 -16 -9 -13 -5 15 4 27 3 30 -4 15 -11 -24 -13 1 -3 28 6 13 16 -7 36
-68 15 -48 25 -89 22 -92 -3 -4 -6 2 -6 12 0 25 -6 16 -14 -20 -5 -22 -4 -26
4 -15 18 27 12 -10 -10 -57 -21 -48 -19 -58 4 -15 20 36 20 10 1 -28 -20 -38
-11 -40 9 -2 23 41 19 7 -4 -38 -26 -51 -17 -52 10 -2 20 34 22 25 5 -23 -4
-13 -1 -12 9 5 17 28 21 14 6 -25 -7 -17 -7 -24 0 -20 13 8 13 -11 -1 -37 -7
-13 -7 -18 -1 -14 6 3 16 23 23 43 10 33 13 35 20 18 4 -11 8 -27 8 -35 0 -11
-2 -11 -7 2 -5 13 -11 8 -24 -23 -19 -45 -16 -52 6 -11 20 36 20 10 1 -28 -20
-38 -11 -40 9 -2 23 41 19 7 -4 -38 -11 -22 -18 -40 -15 -40 2 0 13 17 24 38
11 20 20 31 21 24 0 -7 -9 -31 -20 -52 -26 -51 -17 -52 10 -2 20 36 21 36 15
7 -4 -22 -3 -26 5 -15 15 23 13 -4 -5 -46 -8 -19 -10 -32 -6 -29 5 3 16 26 25
52 17 50 21 81 5 48 -7 -15 -8 -12 -4 15 4 28 3 31 -5 15 -8 -16 -9 -13 -5 15
4 28 3 31 -5 15 -8 -16 -9 -13 -5 15 4 27 3 30 -4 15 -11 -24 -13 1 -3 28 6
13 16 -7 36 -68 15 -48 25 -89 22 -92 -3 -4 -6 2 -6 12 0 25 -6 16 -14 -20 -5
-22 -4 -26 4 -15 18 27 12 -10 -10 -57 -21 -48 -19 -58 4 -15 8 15 15 20 15
12 1 -8 -10 -34 -24 -58 -13 -23 -20 -40 -15 -37 6 4 19 23 30 43 10 20 19 31
20 24 0 -7 -9 -31 -20 -52 -26 -51 -17 -52 10 -2 20 34 22 25 5 -23 -4 -13 -1
-12 9 5 17 28 21 14 6 -25 -7 -17 -7 -24 0 -20 13 8 13 -11 -1 -37 -7 -13 -7
-18 -1 -14 6 3 16 23 23 43 10 33 13 35 20 18 4 -11 8 -27 8 -35 0 -11 -2 -11
-7 2 -5 13 -11 8 -24 -23 -19 -45 -16 -52 6 -11 20 36 20 10 1 -28 -20 -38
-11 -40 9 -2 23 41 19 7 -4 -38 -11 -22 -18 -40 -15 -40 2 0 13 17 24 38 11
20 20 31 21 24 0 -7 -9 -31 -20 -52 -26 -51 -17 -52 10 -2 20 36 21 36 15 7
-4 -22 -3 -26 5 -15 15 23 13 -4 -5 -46 -8 -19 -10 -32 -6 -29 5 3 16 26 25
52 17 50 21 81 5 48 -7 -15 -8 -12 -4 15 4 28 3 31 -5 15 -8 -16 -9 -13 -5 15
4 28 3 31 -5 15 -8 -16 -9 -13 -5 15 4 27 3 30 -4 15 -11 -24 -13 1 -3 28 6
13 16 -7 36 -68 15 -48 25 -89 22 -92 -3 -4 -6 2 -6 12 0 25 -6 16 -14 -20 -5
-22 -4 -26 4 -15 18 27 12 -10 -10 -57 -21 -48 -19 -58 4 -15 8 15 15 20 15
12 1 -8 -10 -34 -24 -58 -13 -23 -20 -40 -15 -37 6 4 19 23 30 43 10 20 19 31
20 24 0 -7 -9 -31 -20 -52 -26 -51 -17 -52 10 -2 20 36 21 36 15 7 -4 -22 -3
-26 5 -15 13 20 13 -1 0 -35 -7 -17 -7 -24 0 -20 13 8 13 -11 -1 -37 -7 -13
-7 -18 -1 -14 6 3 16 23 23 43 10 33 13 35 20 18 4 -11 8 -27 8 -35 0 -11 -2
-11 -7 2 -5 13 -11 8 -24 -23 -19 -45 -16 -52 6 -11 20 36 20 10 1 -28 -20
-38 -11 -40 9 -2 23 41 19 7 -4 -38 -11 -22 -18 -40 -15 -40 2 0 13 17 24 38
11 20 20 31 21 24 0 -7 -9 -31 -20 -52 -11 -22 -18 -40 -15 -40 2 0 13 17 24
38 21 39 28 31 11 -13 -7 -17 -7 -24 0 -20 13 8 13 -11 0 -36 -6 -10 -8 -19
-6 -19 14 0 29 49 31 99 2 39 0 50 -6 36 -7 -15 -8 -11 -4 15 4 28 3 31 -5 15
-8 -16 -9 -13 -5 15 4 27 3 30 -4 15 -11 -24 -13 1 -3 28 6 13 16 -7 36 -68
15 -48 25 -89 22 -92 -3 -4 -6 2 -6 12 0 25 -6 16 -14 -20 -5 -22 -4 -26 4
-15 18 27 12 -10 -10 -57 -21 -48 -19 -58 4 -15 8 15 15 20 15 12 1 -8 -10
-34 -24 -58 -13 -23 -20 -40 -15 -37 6 4 19 23 30 43 10 20 19 31 20 24 0 -7
-9 -31 -20 -52 -26 -51 -17 -52 10 -2 20 36 21 36 15 7 -4 -22 -3 -26 5 -15
13 20 13 -1 0 -35 -7 -17 -7 -24 0 -20 13 8 13 -11 -1 -37 -7 -13 -7 -18 -1
-14 6 3 16 23 23 43 10 33 13 35 20 18 4 -11 8 -27 8 -35 0 -11 -2 -11 -7 2
-5 13 -11 8 -24 -23 -19 -45 -16 -52 6 -11 20 36 20 10 1 -28 -20 -38 -11 -40
9 -2 23 41 19 7 -4 -38 -11 -22 -18 -40 -15 -40 2 0 13 17 24 38 11 20 20 31
21 24 0 -7 -9 -31 -20 -52 -11 -22 -18 -40 -15 -40 2 0 13 17 24 38 21 39 28
31 11 -13 -7 -17 -7 -24 0 -20 13 8 13 -11 -1 -37 -7 -13 -7 -18 -1 -14 6 3
16 23 23 43 10 33 13 35 20 18 4 -11 8 -27 8 -35 0 -11 -2 -11 -7 2 -5 13 -11
8 -24 -23 -19 -45 -16 -52 6 -11 20 36 20 10 1 -28 -20 -38 -11 -40 9 -2 23
41 19 7 -4 -38 -11 -22 -18 -40 -15 -40 2 0 13 17 24 38 11 20 20 31 21 24 0
-7 -9 -31 -20 -52 -26 -51 -17 -52 10 -2 20 36 21 36 15 7 -4 -22 -3 -26 5
-15 13 19 13 -1 0 -34 -5 -14 -7 -26 -5 -26 7 0 23 43 30 78 5 23 4 24 -5 7
-8 -16 -9 -13 -5 15 4 28 3 31 -5 15 -8 -16 -9 -13 -5 15 4 28 3 31 -5 15 -8
-16 -9 -13 -5 15 4 27 3 30 -4 15 -11 -24 -13 1 -3 28 6 13 15 -6 35 -66 27
-83 34 -120 16 -82 -7 16 -8 13 -4 -14 3 -21 -2 -49 -14 -77 -22 -49 -20 -59
3 -16 20 36 20 10 1 -28 -20 -38 -11 -40 9 -2 23 41 19 7 -4 -38 -11 -22 -18
-40 -15 -40 2 0 13 17 24 38 11 20 20 31 21 24 0 -7 -9 -31 -20 -52 -11 -22
-18 -40 -15 -40 2 0 13 17 24 38 21 39 28 31 11 -13 -7 -17 -7 -24 0 -20 13 8
13 -11 -1 -37 -7 -13 -7 -18 -1 -14 6 3 16 23 23 43 10 33 13 35 20 18 4 -11
8 -27 8 -35 0 -11 -2 -11 -7 2 -5 13 -11 8 -24 -23 -19 -45 -16 -52 6 -11 20
36 20 10 1 -28 -20 -38 -11 -40 9 -2 23 41 19 7 -4 -38 -11 -22 -18 -40 -15
-40 2 0 13 17 24 38 11 20 20 31 21 24 0 -7 -9 -31 -20 -52 -26 -51 -17 -52
10 -2 20 36 21 36 15 7 -4 -22 -3 -26 5 -15 13 19 13 -1 0 -34 -5 -14 -7 -26
-5 -26 7 0 23 43 30 78 5 23 4 24 -5 7 -8 -16 -9 -13 -5 15 4 28 3 31 -5 15
-8 -16 -9 -13 -5 15 4 28 3 31 -5 15 -8 -16 -9 -13 -5 15 4 27 3 30 -4 15 -11
-24 -13 1 -3 28 6 13 16 -7 36 -68 15 -48 25 -89 22 -92 -3 -4 -6 2 -6 12 0
25 -6 16 -14 -20 -5 -22 -4 -26 4 -15 18 27 12 -10 -10 -57 -21 -48 -19 -58 4
-15 20 36 20 10 1 -28 -20 -38 -11 -40 9 -2 23 41 19 7 -4 -38 -26 -51 -17
-52 10 -2 20 34 22 25 5 -23 -4 -13 -1 -12 9 5 17 28 21 14 6 -25 -7 -17 -7
-24 0 -20 13 8 13 -11 -1 -37 -7 -13 -7 -18 -1 -14 6 3 16 23 23 43 10 33 13
35 20 18 4 -11 8 -27 8 -35 0 -11 -2 -11 -7 2 -5 13 -11 8 -24 -23 -19 -45
-16 -52 6 -11 20 36 20 10 1 -28 -20 -38 -11 -40 9 -2 23 41 19 7 -4 -38 -11
-22 -18 -40 -15 -40 2 0 13 17 24 38 11 20 20 31 21 24 0 -7 -9 -31 -20 -52
-26 -51 -17 -52 10 -2 20 36 21 36 15 7 -4 -22 -3 -26 5 -15 15 23 13 -4 -5
-46 -8 -19 -10 -32 -6 -29 5 3 16 26 25 52 17 50 21 81 5 48 -7 -15 -8 -12 -4
15 4 28 3 31 -5 15 -8 -16 -9 -13 -5 15 4 28 3 31 -5 15 -8 -16 -9 -13 -5 15
4 27 3 30 -4 15 -11 -24 -13 1 -3 28 6 13 16 -7 36 -68 15 -48 25 -89 22 -92
-3 -4 -6 2 -6 12 0 25 -6 16 -14 -20 -5 -22 -4 -26 4 -15 18 27 12 -10 -10
-57 -21 -48 -19 -58 4 -15 20 36 20 10 1 -28 -20 -38 -11 -40 9 -2 23 41 19 7
-4 -38 -26 -51 -17 -52 10 -2 20 34 22 25 5 -23 -4 -13 -1 -12 9 5 17 28 21
14 6 -25 -7 -17 -7 -24 0 -20 13 8 13 -11 -1 -37 -7 -13 -7 -18 -1 -14 6 3 16
23 23 43 10 33 13 35 20 18 4 -11 8 -27 8 -35 0 -11 -2 -11 -7 2 -5 13 -11 8
-24 -23 -19 -45 -16 -52 6 -11 20 36 20 10 1 -28 -20 -38 -11 -40 9 -2 23 41
19 7 -4 -38 -11 -22 -18 -40 -15 -40 2 0 13 17 24 38 11 20 20 31 21 24 0 -7
-9 -31 -20 -52 -26 -51 -17 -52 10 -2 20 36 21 36 15 7 -4 -22 -3 -26 5 -15
15 23 13 -4 -4 -45 -17 -39 -13 -47 5 -13 6 12 13 47 14 77 2 39 0 50 -6 36
-7 -15 -8 -11 -4 15 4 28 3 31 -5 15 -8 -16 -9 -13 -5 15 4 27 3 30 -4 15 -11
-24 -13 1 -2 28 5 13 13 -2 30 -55 37 -113 35 -105 21 -88 -9 12 -11 10 -7
-14 3 -16 -2 -48 -10 -70 -8 -23 -16 -50 -17 -61 -7 -52 -502 -1853 -508
-1847 -6 7 -2227 7009 -2763 8712 -15 47 -28 92 -30 100 -2 8 -6 22 -10 31 -9
23 114 135 195 179 36 19 99 45 140 57 42 13 58 21 36 17 -96 -14 -221 -80
-328 -173 l-63 -54 60 61 c69 72 64 84 -7 15 -26 -26 -50 -44 -53 -41 -10 10
114 117 183 157 154 91 330 117 507 75z m-4010 -95 c-63 -228 -205 -423 -384
-529 -144 -86 -283 -131 -567 -185 -224 -42 -264 -61 -304 -142 -11 -21 -19
-32 -20 -25 0 23 28 69 61 96 47 40 90 55 234 82 379 73 572 150 726 292 118
109 210 273 246 437 11 48 19 70 21 56 2 -13 -4 -50 -13 -82z m7440 -175 c142
-286 395 -435 879 -519 86 -15 104 -20 95 -29 -6 -6 -242 38 -341 64 -121 31
-253 85 -338 138 -145 89 -280 255 -340 417 -28 77 -50 160 -49 188 0 12 11
-21 25 -73 13 -52 44 -136 69 -186z m-12574 61 c32 -89 106 -209 176 -285 102
-111 223 -185 445 -276 61 -25 121 -50 132 -56 42 -20 116 -73 116 -82 0 -5
-8 -2 -17 6 -26 23 -120 69 -253 123 -63 26 -137 59 -165 72 -162 82 -304 219
-389 375 -43 77 -106 257 -105 296 0 16 8 -2 19 -43 11 -38 29 -96 41 -130z
m12491 45 c92 -282 289 -471 598 -574 100 -33 294 -77 408 -92 34 -4 50 -10
44 -16 -12 -12 -100 1 -271 39 -376 82 -602 236 -733 498 -36 71 -88 229 -87
262 1 23 3 21 10 -12 5 -22 19 -69 31 -105z m4622 -11 c-66 -206 -168 -353
-329 -473 -87 -65 -154 -100 -320 -166 -197 -80 -235 -101 -300 -172 -62 -67
-65 -62 -7 11 51 63 130 110 293 174 155 61 269 121 356 188 147 114 265 300
314 499 8 30 15 47 17 38 2 -9 -9 -53 -24 -99z m-11938 -53 c-51 -142 -108
-237 -201 -331 -177 -180 -343 -250 -794 -335 -130 -24 -171 -36 -197 -55 -43
-33 -58 -87 -51 -180 4 -44 3 -61 -3 -45 -12 36 -12 134 1 167 12 34 55 80 89
98 14 7 99 27 190 44 417 80 603 161 765 333 41 44 93 111 116 148 40 68 108
241 110 283 2 19 3 18 6 -4 2 -14 -12 -69 -31 -123z m7337 -105 c114 -224 300
-368 587 -455 85 -25 374 -86 411 -86 10 0 19 -7 19 -15 0 -17 9 -18 -213 26
-504 99 -743 280 -872 658 -14 41 -25 84 -24 95 0 12 13 -18 28 -65 15 -48 44
-119 64 -158z m-12527 -40 c46 -83 107 -163 175 -226 103 -97 200 -152 402
-232 192 -74 245 -103 300 -162 26 -27 47 -53 47 -57 0 -4 -17 11 -37 33 -52
55 -102 82 -296 158 -224 87 -307 134 -423 239 -63 57 -143 165 -187 251 -33
66 -87 221 -87 248 1 12 17 -25 36 -83 19 -57 51 -133 70 -169z m17084 177
c-72 -202 -207 -366 -387 -474 -37 -22 -124 -64 -193 -93 -284 -120 -310 -138
-390 -258 -27 -43 -50 -73 -50 -67 0 17 70 118 113 162 52 54 129 100 244 145
290 115 440 222 556 395 44 66 99 181 112 235 4 15 10 26 13 23 3 -3 -5 -34
-18 -68z m75 -30 c-82 -254 -243 -438 -490 -560 -38 -19 -122 -54 -185 -78
-257 -95 -320 -150 -387 -334 -15 -42 -3303 -11493 -3303 -11504 0 -3 -2 -3
-5 0 -5 5 3226 11282 3282 11453 73 226 154 312 364 390 318 118 485 233 610
424 46 71 128 258 130 298 0 10 3 13 6 6 2 -7 -7 -50 -22 -95z m-17105 -150
c24 -39 77 -107 118 -150 114 -119 227 -189 452 -278 142 -56 211 -94 251
-138 31 -34 31 -35 4 -11 -48 42 -92 64 -240 124 -322 130 -450 223 -579 422
-42 66 -106 209 -106 236 1 6 14 -21 29 -61 16 -40 48 -105 71 -144z m16047
-725 c-14 -27 -36 -84 -50 -128 -14 -44 -745 -2584 -1623 -5645 -878 -3061
-1612 -5620 -1632 -5688 -19 -67 -37 -121 -39 -119 -4 5 3239 11314 3284
11452 25 79 69 175 78 175 3 0 -5 -21 -18 -47z m-111 -143 c-18 -58 -192 -660
-386 -1337 -194 -678 -355 -1231 -357 -1229 -4 4 687 2423 739 2584 16 52 31
92 33 90 2 -2 -11 -51 -29 -108z m-11271 -2937 c470 -1646 855 -2996 855
-3000 0 -3 -2 -4 -4 -2 -8 7 -1716 5986 -1715 6001 0 7 2 9 4 3 2 -5 389
-1357 860 -3002z m45 38 c462 -1619 839 -2945 837 -2947 -4 -4 -1687 5874
-1687 5891 0 5 2 6 4 4 2 -2 383 -1329 846 -2948z m29 24 c451 -1579 823
-2879 827 -2890 4 -13 4 -17 -3 -10 -9 10 -1646 5727 -1658 5790 -5 28 -4 28
5 5 5 -14 378 -1317 829 -2895z m3155 124 c389 -1218 540 -1695 540 -1711 0
-10 4 -18 9 -18 5 0 3 -8 -4 -17 -8 -9 -9 -14 -2 -10 14 9 35 -47 26 -70 -4
-11 -3 -14 5 -9 19 12 14 -8 -11 -42 -13 -17 -32 -50 -42 -72 -13 -28 -21 -37
-27 -28 -6 11 -8 11 -8 0 0 -7 -5 -10 -11 -6 -8 5 -8 1 0 -14 6 -11 11 -27 11
-34 -1 -7 -8 -1 -16 15 -20 37 -29 35 -9 -3 17 -33 19 -44 6 -36 -5 4 -7 -4
-4 -16 4 -18 0 -16 -16 10 -29 45 -34 40 -8 -7 14 -26 24 -35 29 -28 5 8 8 7
8 -3 0 -8 -4 -21 -9 -28 -6 -10 -12 -5 -21 18 -7 17 -17 33 -22 36 -5 3 0 -12
11 -35 12 -22 21 -46 21 -53 -1 -7 -10 4 -21 25 -11 20 -22 37 -24 37 -3 0 4
-18 15 -40 21 -41 28 -77 10 -50 -8 11 -9 7 -4 -15 4 -23 3 -27 -5 -15 -9 12
-10 8 -5 -15 4 -23 3 -26 -5 -15 -8 11 -11 12 -11 2 0 -7 -4 -11 -9 -8 -5 4
-7 -4 -3 -16 3 -13 1 -19 -5 -15 -7 5 -9 -1 -5 -15 3 -14 1 -19 -6 -14 -8 5
-8 -1 -1 -24 14 -38 21 -39 13 -2 -4 21 -3 24 5 12 9 -12 10 -9 6 15 -3 17 -2
24 1 16 5 -11 8 -11 15 0 15 24 10 -5 -11 -66 -11 -32 -20 -63 -19 -69 0 -6
11 20 25 58 13 38 21 81 19 95 -5 23 -4 24 5 6 8 -16 9 -13 5 15 -4 28 -3 31
5 15 9 -17 10 -16 5 7 -3 15 4 51 15 81 11 30 18 61 14 70 -3 9 -1 24 5 34 9
15 10 13 6 -12 -5 -27 -3 -26 14 10 23 47 27 72 6 35 -22 -39 -17 -4 6 43 25
50 69 110 76 104 2 -3 -12 -26 -31 -52 -20 -25 -36 -54 -35 -63 0 -15 2 -15
12 2 24 38 60 77 65 71 4 -3 2 -9 -4 -13 -35 -24 -141 -235 -132 -263 2 -6 18
26 37 71 34 83 84 160 111 168 8 3 -4 -16 -27 -42 -24 -27 -57 -83 -78 -134
-20 -48 -520 -1563 -1110 -3367 -933 -2850 -1144 -3487 -1158 -3502 -7 -6 0
73 8 102 7 26 9 27 16 10 5 -15 7 -10 6 15 -1 19 2 46 6 60 6 19 6 21 -2 10
-6 -8 -11 -10 -11 -4 0 5 -7 19 -15 30 -14 17 -14 16 0 -13 19 -41 19 -67 -1
-30 -20 37 -29 35 -9 -3 8 -16 15 -35 15 -42 -1 -7 -10 4 -20 24 -11 20 -24
39 -30 43 -5 3 2 -14 15 -37 24 -42 37 -92 15 -58 -8 13 -10 13 -10 1 0 -11
-4 -9 -15 5 -14 17 -14 16 0 -13 17 -36 21 -68 5 -43 -7 11 -10 11 -10 2 0 -7
-4 -10 -10 -7 -6 3 -7 -1 -3 -10 5 -13 7 -14 14 -3 7 10 9 10 9 -2 0 -13 1
-13 10 0 18 28 10 -12 -11 -55 -18 -37 -20 -26 -4 20 5 14 4 16 -3 7 -7 -10
-12 -6 -22 17 -6 17 -19 36 -28 43 -14 11 -13 9 1 -12 19 -28 22 -44 6 -34 -6
3 -3 -8 6 -25 9 -19 13 -41 9 -53 -6 -21 -7 -21 -21 5 -15 30 -26 37 -16 10 5
-11 3 -14 -6 -8 -10 6 -11 3 -2 -13 14 -26 14 -35 1 -27 -6 3 -7 -1 -3 -10 5
-13 7 -14 14 -3 18 27 9 -13 -11 -52 -28 -56 -24 -64 5 -10 35 65 30 40 -6
-31 -17 -34 -28 -64 -25 -67 3 -3 26 39 51 94 68 147 77 164 69 134 -19 -77
-202 -410 -211 -383 -2 6 -46 -30 -96 -80 -150 -150 -307 -217 -506 -217 -119
0 -202 19 -306 70 -75 36 -172 107 -161 117 2 3 27 -13 55 -35 50 -40 159 -98
167 -89 3 2 -10 10 -28 17 -63 25 -143 82 -210 148 -38 37 -68 70 -68 75 0 5
27 -19 61 -52 34 -34 80 -74 103 -90 48 -32 83 -50 46 -24 -71 52 -105 81
-103 90 1 6 -11 23 -27 38 -17 16 -30 33 -30 39 0 6 21 -10 48 -34 42 -41 42
-39 -7 12 -30 31 -57 57 -60 56 -3 0 -9 1 -13 2 -5 1 -13 3 -20 4 -6 0 -13 6
-15 13 -3 9 24 11 35 3 1 -2 7 -4 12 -5 6 -1 11 -3 13 -5 8 -7 38 -7 42 0 3 5
-3 7 -12 5 -10 -1 -24 2 -30 8 -7 5 -13 6 -13 3 0 -4 -6 -4 -12 1 -7 4 -20 8
-28 8 -8 0 -22 4 -30 9 -12 7 -13 6 -2 -5 6 -7 12 -18 12 -23 -1 -12 -40 32
-40 44 0 5 8 7 18 5 9 -2 17 -4 17 -5 0 -6 56 -6 60 0 2 4 -10 6 -27 6 -18 -1
-33 5 -36 13 -3 8 0 11 6 7 6 -3 13 -3 16 2 3 5 -9 8 -26 8 -18 -1 -33 5 -36
13 -3 8 0 11 5 8 5 -3 9 3 9 13 0 10 -5 16 -10 13 -5 -4 -7 1 -3 10 4 12 1 15
-14 12 -15 -3 -19 0 -15 11 4 10 2 13 -6 8 -8 -5 -9 -2 -5 10 5 11 3 15 -5 10
-8 -5 -9 -2 -5 10 5 11 3 15 -5 10 -8 -5 -9 -2 -5 10 4 10 3 15 -3 11 -13 -8
-13 1 1 28 10 21 10 21 -5 3 -12 -14 -16 -16 -16 -5 0 11 -2 11 -9 1 -7 -11
-10 -10 -15 3 -9 25 -7 43 3 27 7 -11 9 -10 14 3 4 9 3 13 -3 10 -13 -8 -13 1
1 28 10 21 10 21 -5 3 -12 -14 -16 -16 -16 -5 0 12 -2 12 -10 -1 -16 -25 -12
7 5 43 14 29 14 30 0 13 -8 -11 -15 -25 -15 -30 0 -6 -5 -4 -10 4 -5 8 -10 22
-10 30 0 12 2 12 9 2 7 -11 9 -10 14 3 4 9 3 13 -3 10 -6 -3 -10 0 -10 7 0 9
-3 9 -10 -2 -18 -28 -11 9 10 50 11 22 18 40 15 40 -2 0 -13 -17 -24 -37 -11
-21 -20 -32 -21 -25 0 7 7 26 15 42 20 38 11 40 -9 3 -8 -16 -15 -21 -15 -13
-1 8 11 35 24 59 14 24 19 39 11 32 -7 -6 -20 -25 -26 -42 -10 -22 -15 -27
-21 -17 -15 23 -10 2 21 -85 32 -90 39 -123 15 -72 -7 17 -14 25 -14 18 -1
-12 77 -201 106 -256 8 -16 17 -27 19 -24 3 3 -10 36 -29 73 -19 38 -37 80
-41 94 -3 14 8 -2 25 -35 21 -42 28 -51 24 -30 l-5 30 15 -25 c17 -29 19 -44
5 -35 -15 9 -12 -9 6 -31 14 -18 15 -18 9 6 -5 19 -4 22 4 10 6 -8 8 -22 5
-31 -2 -10 15 -46 41 -84 48 -72 54 -85 30 -65 -8 7 -15 8 -15 2 0 -5 7 -15
15 -22 12 -10 15 -10 15 1 0 8 22 -11 49 -41 28 -31 44 -58 39 -61 -15 -10 94
-92 170 -129 154 -75 344 -92 508 -44 127 36 223 93 321 192 89 89 112 100 35
16 -245 -267 -613 -330 -912 -157 -145 84 -291 268 -391 492 -50 113 -170 459
-168 488 0 10 6 0 14 -22 7 -22 13 -32 14 -23 1 9 4 25 7 35 5 15 4 15 -5 3
-9 -13 -11 -13 -11 3 0 10 8 17 20 17 16 0 18 -4 11 -23 -15 -38 -5 -120 24
-206 15 -45 29 -80 32 -77 3 2 -3 27 -12 55 -16 50 -16 51 9 106 28 63 26 74
-3 18 -11 -21 -20 -32 -21 -25 0 7 9 31 20 52 26 51 17 52 -10 3 -20 -35 -22
-26 -5 22 4 13 1 12 -9 -5 -17 -28 -21 -14 -6 25 7 19 7 24 -1 19 -7 -4 -10 1
-7 12 3 17 15 19 131 22 82 2 127 6 127 13 0 11 421 1303 1150 3524 198 605
696 2127 1107 3382 411 1256 748 2281 750 2280 1 -2 81 -248 177 -548z m6650
-2093 c-175 -608 -319 -1104 -321 -1102 -2 2 139 501 313 1110 175 608 319
1104 321 1102 2 -2 -139 -501 -313 -1110z m-1135 -3955 c-265 -924 -484 -1679
-486 -1677 -2 2 213 760 478 1685 265 924 484 1679 486 1677 2 -2 -213 -760
-478 -1685z m-7103 -2617 c-108 -320 -157 -447 -226 -586 -137 -274 -314 -447
-524 -514 -357 -113 -696 16 -914 349 -53 81 -133 238 -146 287 -4 14 20 -29
52 -96 141 -288 288 -438 507 -517 288 -103 602 -26 816 199 160 169 264 390
450 952 41 122 75 219 77 214 1 -4 -40 -134 -92 -288z m-1814 -354 c155 -418
353 -638 642 -710 99 -25 253 -27 345 -4 287 70 490 282 651 681 19 46 35 81
37 79 6 -6 -54 -151 -103 -248 -180 -357 -409 -532 -719 -545 -340 -15 -597
166 -781 551 -52 110 -137 334 -148 391 -4 17 1 10 10 -15 9 -25 39 -106 66
-180z m8098 133 c-147 -445 -318 -695 -553 -807 -266 -127 -572 -90 -798 97
-110 91 -227 261 -308 446 -60 136 -49 124 23 -25 147 -304 303 -463 531 -540
113 -39 286 -45 403 -16 94 24 207 78 272 130 103 82 210 220 283 367 34 69
123 300 148 383 7 23 14 40 17 38 2 -3 -6 -35 -18 -73z m15 -35 c-104 -315
-216 -520 -360 -663 -128 -127 -259 -190 -447 -215 -146 -20 -324 17 -465 95
-127 72 -288 256 -377 432 -43 86 -30 74 23 -19 145 -260 313 -406 537 -469
111 -32 286 -32 397 -1 319 90 526 349 688 859 12 40 25 71 27 68 2 -2 -8 -41
-23 -87z m-8146 -283 c123 -307 310 -521 532 -609 125 -49 190 -58 354 -53
135 4 159 8 239 36 269 94 452 296 604 666 27 66 57 144 66 173 10 29 20 51
22 49 13 -12 -138 -379 -197 -480 -147 -250 -328 -395 -565 -454 -102 -25
-324 -23 -424 5 -328 88 -529 327 -700 829 -28 80 -50 151 -49 157 0 6 20 -45
44 -114 23 -69 57 -161 74 -205z m8170 149 c-120 -349 -241 -548 -412 -678
-118 -89 -223 -133 -374 -155 -201 -30 -421 15 -584 121 -123 79 -264 247
-347 413 -39 80 -125 295 -119 301 2 2 14 -24 27 -58 118 -327 305 -569 525
-680 117 -59 186 -73 370 -73 151 0 178 3 245 24 312 98 506 334 667 809 26
78 49 138 51 134 1 -5 -21 -76 -49 -158z m-8154 -79 c162 -417 383 -627 716
-682 86 -14 117 -15 203 -5 194 21 335 89 472 226 97 97 150 170 220 300 24
44 44 77 44 72 0 -20 -105 -205 -154 -271 -162 -215 -327 -314 -577 -346 -68
-9 -111 -9 -181 0 -303 39 -515 206 -677 533 -53 107 -132 306 -130 326 1 9
10 -12 64 -153z m6416 -51 c73 -175 198 -358 312 -454 212 -180 512 -235 775
-142 119 42 187 87 292 192 105 104 181 219 247 372 20 48 39 85 41 83 2 -2
-19 -56 -48 -120 -180 -397 -443 -591 -800 -589 -331 2 -587 177 -764 524 -52
100 -117 252 -115 268 1 7 12 -18 60 -134z"/>
<path d="M6715 15702 c79 -42 154 -93 155 -105 0 -9 -13 -3 -55 28 -41 30
-120 75 -131 75 -5 0 21 -17 56 -37 67 -39 230 -190 230 -213 0 -8 -25 14 -55
48 -31 33 -75 76 -98 94 -23 18 -3 -6 46 -53 48 -47 87 -91 87 -98 0 -11 -3
-11 -17 0 -15 11 -16 11 -5 -1 6 -8 12 -18 12 -23 0 -4 -6 -5 -12 0 -19 11
-39 13 -32 2 3 -5 9 -7 14 -4 5 3 11 1 15 -5 4 -6 10 -8 15 -5 5 3 16 -8 25
-24 17 -35 19 -45 5 -36 -6 3 -7 -1 -3 -10 4 -12 8 -13 13 -5 5 9 10 6 15 -9
4 -13 9 -20 12 -18 2 3 -5 24 -17 47 -12 23 -19 44 -16 47 2 3 14 -12 25 -34
11 -21 20 -34 21 -29 0 5 -12 29 -26 53 -14 25 -23 47 -20 50 3 4 25 -34 48
-83 31 -65 42 -101 42 -134 -1 -29 1 -38 6 -25 14 40 35 -96 35 -230 0 -131
-21 -270 -34 -231 -4 11 -7 -1 -8 -30 0 -48 -56 -194 -69 -181 -3 3 4 23 15
46 12 22 21 44 21 48 -1 4 -14 -18 -31 -49 -16 -32 -32 -58 -35 -58 -3 0 -4 6
-1 14 6 15 -17 16 -30 1 -5 -4 -2 -5 6 0 11 6 13 4 8 -9 -4 -10 -3 -15 3 -11
6 3 10 2 10 -3 0 -14 -39 -59 -40 -47 0 6 6 17 13 25 10 12 9 12 -4 2 -9 -6
-18 -10 -21 -7 -3 3 -13 -5 -24 -17 l-19 -23 23 19 c12 11 22 14 22 9 0 -6
-37 -46 -82 -89 -46 -44 -74 -72 -63 -65 11 8 50 44 88 80 84 82 88 69 5 -19
l-63 -65 68 65 c37 35 67 60 67 54 0 -13 -111 -120 -160 -154 -19 -14 -62 -39
-95 -57 -33 -18 -56 -33 -51 -33 16 0 122 61 180 105 33 24 62 42 65 39 3 -3
1 -8 -5 -12 -5 -4 -35 -26 -65 -48 -58 -44 -161 -99 -242 -129 -26 -10 -46
-20 -43 -22 2 -2 39 10 83 28 281 115 440 295 520 589 26 95 25 377 -1 474
-66 246 -191 405 -396 507 -84 42 -88 35 -5 -9z m206 -149 c125 -143 195 -325
206 -534 13 -245 -49 -447 -190 -626 -27 -35 -53 -63 -59 -63 -5 0 11 24 36
54 47 54 60 79 29 55 -16 -12 -15 -10 1 16 11 17 26 39 33 50 15 20 15 19 8
-2 -14 -49 8 -19 46 61 62 133 83 236 84 401 0 115 -4 156 -24 230 -39 148
-94 254 -184 353 -22 23 -35 42 -29 42 5 0 25 -17 43 -37z"/>
<path d="M5867 13494 c-3 -16 -9 -38 -12 -49 -6 -16 -5 -17 4 -5 9 13 11 12
12 -5 l0 -20 10 20 c8 16 9 15 5 -10 -3 -16 -8 -39 -11 -50 -6 -16 -5 -17 4
-5 9 13 11 12 12 -5 l0 -20 10 20 c8 16 9 15 5 -10 -3 -16 -8 -39 -11 -50 -6
-16 -5 -17 4 -5 9 13 11 12 12 -5 l0 -20 10 20 c8 16 9 15 5 -10 -3 -16 -8
-39 -11 -50 -6 -16 -5 -17 4 -5 9 13 11 12 12 -5 l0 -20 10 20 c8 16 9 15 5
-10 -3 -16 -8 -39 -11 -50 -6 -16 -5 -17 4 -5 9 13 11 12 12 -5 l0 -20 10 20
c8 16 9 15 5 -10 -3 -16 -8 -39 -11 -50 -6 -16 -5 -17 4 -5 9 13 11 12 12 -5
l0 -20 10 20 c8 16 9 15 5 -10 -3 -16 -8 -39 -11 -50 -6 -16 -5 -17 4 -5 9 13
11 12 12 -5 l0 -20 10 20 c8 16 9 15 5 -10 -3 -16 -8 -39 -11 -50 -6 -16 -5
-17 4 -5 9 13 11 12 12 -5 l0 -20 10 20 c8 16 9 15 5 -10 -3 -16 -8 -39 -11
-50 -6 -16 -5 -17 4 -5 9 13 11 12 12 -5 l0 -20 10 20 c8 16 9 15 5 -10 -3
-16 -8 -39 -11 -50 -6 -16 -5 -17 4 -5 9 13 11 12 12 -5 l0 -20 10 20 c8 16 9
15 5 -10 -3 -16 -8 -39 -11 -50 -6 -16 -5 -17 4 -5 9 13 11 12 12 -5 l0 -20
10 20 c8 16 9 15 5 -10 -3 -16 -8 -39 -11 -50 -6 -16 -5 -17 4 -5 9 13 11 12
12 -5 l0 -20 10 20 c8 16 9 15 5 -10 -3 -16 -8 -39 -11 -50 -6 -16 -5 -17 4
-5 9 13 11 12 12 -5 l0 -20 10 20 c8 16 9 15 5 -10 -3 -16 -8 -39 -11 -50 -6
-16 -5 -17 4 -5 9 13 11 12 12 -5 l0 -20 10 20 c8 16 9 15 5 -10 -3 -16 -8
-39 -11 -50 -6 -16 -5 -17 4 -5 9 13 11 12 12 -5 l0 -20 10 20 c8 16 9 15 5
-10 -3 -16 -8 -39 -11 -50 -6 -16 -5 -17 4 -5 9 13 11 12 12 -5 l0 -20 10 20
c8 16 9 15 5 -10 -3 -16 -8 -39 -11 -50 -6 -16 -5 -17 4 -5 9 13 11 12 12 -5
l0 -20 10 20 c8 16 9 15 5 -10 -3 -16 -8 -39 -11 -50 -6 -16 -5 -17 4 -5 9 13
11 12 12 -5 l0 -20 10 20 c8 16 9 15 5 -10 -3 -16 -8 -39 -11 -50 -6 -16 -5
-17 4 -5 9 13 11 12 12 -5 l0 -20 10 20 c8 16 9 15 5 -10 -3 -16 -8 -39 -11
-50 -6 -16 -5 -17 4 -5 9 13 11 12 12 -5 l0 -20 10 20 c8 16 9 15 5 -10 -3
-16 -8 -39 -11 -50 -6 -16 -5 -17 4 -5 9 13 11 12 12 -5 l0 -20 10 20 c8 16 9
15 5 -10 -3 -16 -8 -39 -11 -50 -6 -16 -5 -17 4 -5 9 13 11 12 12 -5 l0 -20
10 20 c8 16 9 15 5 -10 -3 -16 -8 -39 -11 -50 -6 -16 -5 -17 4 -5 9 13 11 12
12 -5 l0 -20 10 20 c8 16 9 15 5 -10 -3 -16 -8 -39 -11 -50 -6 -16 -5 -17 4
-5 9 13 11 12 12 -5 l0 -20 10 20 c8 16 9 15 5 -10 -3 -16 -8 -39 -11 -50 -6
-16 -5 -17 4 -5 9 13 11 12 12 -5 l0 -20 10 20 c8 16 9 15 5 -10 -3 -16 -8
-39 -11 -50 -6 -16 -5 -17 4 -5 9 13 11 12 12 -5 l0 -20 10 20 c8 16 9 15 5
-10 -3 -16 -8 -39 -11 -50 -6 -16 -5 -17 4 -5 9 13 11 12 12 -5 l0 -20 10 20
c8 16 9 15 5 -10 -3 -16 -8 -39 -11 -50 -6 -16 -5 -17 4 -5 9 13 11 12 12 -5
l0 -20 10 20 c8 16 9 15 5 -10 -3 -16 -8 -39 -11 -50 -6 -16 -5 -17 4 -5 9 13
11 12 12 -5 l0 -20 10 20 c8 16 9 15 5 -10 -3 -16 -8 -39 -11 -50 -6 -16 -5
-17 4 -5 9 13 11 12 12 -5 l0 -20 10 20 c8 16 9 15 5 -10 -3 -16 -8 -39 -11
-50 -6 -16 -5 -17 4 -5 9 13 11 12 12 -5 l0 -20 10 20 c8 16 9 15 5 -10 -3
-16 -8 -39 -11 -50 -6 -16 -5 -17 4 -5 9 13 11 12 12 -5 l0 -20 10 20 c8 16 9
15 5 -10 -3 -16 -8 -39 -11 -50 -6 -16 -5 -17 4 -5 9 13 11 12 12 -5 l0 -20
10 20 c8 16 9 15 5 -10 -3 -16 -8 -39 -11 -50 -6 -16 -5 -17 4 -5 9 13 11 12
12 -5 l0 -20 10 20 c8 16 9 15 5 -10 -3 -16 -8 -39 -11 -50 -6 -16 -5 -17 4
-5 9 13 11 12 12 -5 l0 -20 10 20 c8 16 9 15 5 -10 -3 -16 -8 -39 -11 -50 -6
-16 -5 -17 4 -5 19 26 13 -10 -10 -60 -11 -25 -15 -40 -9 -34 6 6 20 33 31 60
14 35 19 40 15 19 -2 -16 -8 -39 -11 -50 -6 -16 -5 -17 4 -5 19 26 13 -10 -10
-60 -11 -25 -15 -40 -9 -34 6 6 20 33 31 60 14 35 19 40 15 19 -2 -16 -8 -39
-11 -50 -6 -16 -5 -17 4 -5 19 26 13 -10 -10 -60 -11 -25 -15 -40 -9 -34 6 6
20 33 31 60 14 35 19 40 15 19 -2 -16 -8 -39 -11 -50 -6 -16 -5 -17 4 -5 19
26 13 -10 -10 -60 -11 -25 -15 -40 -9 -34 6 6 20 33 31 60 14 35 19 40 15 19
-2 -16 -8 -39 -11 -50 -6 -16 -5 -17 4 -5 19 26 13 -10 -10 -60 -11 -25 -15
-40 -9 -34 6 6 20 33 31 60 14 35 19 40 15 19 -2 -16 -8 -39 -11 -50 -6 -16
-5 -17 4 -5 19 26 13 -10 -10 -60 -11 -25 -15 -40 -9 -34 6 6 20 33 31 60 14
35 19 40 15 19 -2 -16 -8 -39 -11 -50 -6 -16 -5 -17 4 -5 19 26 13 -10 -10
-60 -11 -25 -15 -40 -9 -34 6 6 20 33 31 60 14 35 19 40 15 19 -2 -16 -8 -39
-11 -50 -6 -16 -5 -17 4 -5 19 26 13 -10 -10 -60 -11 -25 -15 -40 -9 -34 6 6
20 33 31 60 14 35 19 40 15 19 -2 -16 -8 -39 -11 -50 -6 -16 -5 -17 4 -5 19
26 13 -10 -10 -60 -11 -25 -15 -40 -9 -34 6 6 20 33 31 60 14 35 19 40 15 19
-2 -16 -8 -39 -11 -50 -6 -16 -5 -17 4 -5 19 26 13 -10 -10 -60 -11 -25 -15
-40 -9 -34 6 6 20 33 31 60 14 35 19 40 15 19 -2 -16 -8 -39 -11 -50 -6 -16
-5 -17 4 -5 19 26 13 -10 -10 -60 -11 -25 -15 -40 -9 -34 6 6 20 33 31 60 14
35 19 40 15 19 -2 -16 -8 -39 -11 -50 -6 -16 -5 -17 4 -5 19 26 13 -10 -10
-60 -11 -25 -15 -40 -9 -34 6 6 20 33 31 60 14 35 19 40 15 19 -2 -16 -8 -39
-11 -50 -6 -16 -5 -17 4 -5 19 26 13 -10 -10 -60 -11 -25 -15 -40 -9 -34 6 6
20 33 31 60 14 35 19 40 15 19 -2 -16 -8 -39 -11 -50 -6 -16 -5 -17 4 -5 19
26 13 -10 -10 -60 -11 -25 -15 -40 -9 -34 6 6 20 33 31 60 14 35 19 40 15 19
-2 -16 -8 -39 -11 -50 -6 -16 -5 -17 4 -5 19 26 13 -10 -10 -60 -11 -25 -15
-40 -9 -34 6 6 20 33 31 60 14 35 19 40 15 19 -2 -16 -8 -39 -11 -50 -6 -16
-5 -17 4 -5 19 26 13 -10 -10 -60 -11 -25 -15 -40 -9 -34 6 6 20 33 31 60 14
35 19 40 15 19 -2 -16 -8 -39 -11 -50 -6 -16 -5 -17 4 -5 19 26 13 -10 -10
-60 -11 -25 -15 -40 -9 -34 6 6 20 33 31 60 14 35 19 40 15 19 -2 -16 -8 -39
-11 -50 -6 -16 -5 -17 4 -5 19 26 13 -10 -10 -60 -11 -25 -15 -40 -9 -34 6 6
20 33 31 60 14 35 19 40 15 19 -2 -16 -8 -39 -11 -50 -6 -16 -5 -17 4 -5 19
26 13 -10 -10 -60 -11 -25 -15 -40 -9 -34 6 6 20 33 31 60 14 35 19 40 15 19
-2 -16 -8 -39 -11 -50 -6 -16 -5 -17 4 -5 19 26 13 -10 -10 -60 -11 -25 -15
-40 -9 -34 6 6 19 33 30 60 10 27 19 41 20 31 0 -10 -7 -34 -15 -54 -19 -44
-19 -56 0 -23 22 38 18 2 -6 -50 -11 -25 -15 -40 -9 -34 6 6 19 33 30 60 10
27 19 41 20 31 0 -10 -7 -34 -15 -54 -19 -44 -19 -56 0 -23 22 38 18 2 -6 -50
-11 -25 -15 -40 -9 -34 6 6 19 33 30 60 10 27 19 41 20 31 0 -10 -7 -34 -15
-54 -19 -44 -19 -56 0 -23 22 38 18 2 -6 -50 -11 -25 -15 -40 -9 -34 6 6 19
33 30 60 10 27 19 41 20 31 0 -10 -7 -34 -15 -54 -19 -44 -19 -56 0 -23 22 38
18 2 -6 -50 -11 -25 -15 -40 -9 -34 6 6 19 33 30 60 10 27 19 41 20 31 0 -10
-7 -34 -15 -54 -19 -44 -19 -56 0 -23 22 38 18 2 -6 -50 -11 -25 -15 -40 -9
-34 6 6 19 33 30 60 10 27 19 41 20 31 0 -10 -7 -34 -15 -54 -19 -44 -19 -56
0 -23 22 38 18 2 -6 -50 -11 -25 -15 -40 -9 -34 6 6 19 33 30 60 10 27 19 41
20 31 0 -10 -7 -34 -15 -54 -19 -44 -19 -56 0 -23 22 38 18 2 -6 -50 -11 -25
-15 -40 -9 -34 6 6 19 33 30 60 10 27 19 41 20 31 0 -10 -7 -34 -15 -54 -19
-44 -19 -56 0 -23 21 37 18 2 -5 -50 -12 -27 -14 -38 -5 -26 8 10 21 40 30 65
l15 46 -628 2199 c-465 1626 -630 2192 -635 2170z"/>
<path d="M7342 8297 c-7 -23 -15 -49 -18 -57 -3 -8 2 -4 11 10 l16 25 -5 -30
-5 -30 13 29 14 30 7 -33 c4 -18 4 -35 1 -38 -3 -4 -6 2 -6 13 -1 13 -6 8 -15
-15 -19 -43 -19 -53 1 -21 l15 25 -5 -30 -5 -30 13 29 14 30 6 -30 c4 -17 2
-43 -4 -58 -13 -34 -13 -46 0 -26 8 12 10 12 11 -5 l0 -20 10 20 c8 16 9 15 5
-10 -3 -16 -8 -39 -11 -50 -6 -16 -5 -17 4 -5 9 13 11 12 12 -5 l0 -20 10 20
c8 16 9 15 5 -10 -3 -16 -8 -39 -11 -50 -6 -16 -5 -17 4 -5 9 13 11 12 12 -5
l0 -20 10 20 c8 16 9 15 5 -10 -3 -16 -8 -39 -11 -50 -6 -16 -5 -17 4 -5 9 13
11 12 12 -5 l0 -20 10 20 c8 16 9 15 5 -10 -3 -16 -8 -39 -11 -50 -6 -16 -5
-17 4 -5 9 13 11 12 12 -5 l0 -20 10 20 c8 16 9 15 5 -10 -3 -16 -8 -39 -11
-50 -6 -16 -5 -17 4 -5 9 13 11 12 12 -5 l0 -20 10 20 c8 16 9 15 5 -10 -3
-16 -8 -39 -11 -50 -6 -16 -5 -17 4 -5 9 13 11 12 12 -5 l0 -20 10 20 c8 16 9
15 5 -10 -3 -16 -8 -39 -11 -50 -6 -16 -5 -17 4 -5 9 13 11 12 12 -5 l0 -20
10 20 c8 16 9 15 5 -10 -3 -16 -7 -39 -10 -50 -4 -11 1 -4 10 14 16 35 14 39
-91 410 -59 207 -108 377 -109 378 -1 1 -8 -17 -14 -40z"/>
<path d="M17983 13739 c19 -27 22 -43 6 -33 -6 3 -4 -8 5 -24 18 -35 22 -67 6
-42 -8 13 -10 13 -10 1 0 -11 -4 -9 -16 5 -15 18 -15 18 -5 -3 17 -33 12 -52
-5 -20 -20 37 -29 35 -9 -3 19 -38 19 -64 -1 -27 -20 37 -29 35 -9 -3 8 -16
15 -35 15 -42 -1 -7 -9 3 -20 23 -10 19 -27 42 -37 50 -17 13 -17 13 -1 -7 33
-39 60 -113 52 -146 l-6 -32 -14 30 -13 29 5 -30 5 -30 -15 25 c-20 32 -20 22
-1 -21 9 -23 14 -28 15 -15 0 11 3 17 6 13 3 -3 3 -21 -1 -39 l-8 -33 -14 40
c-7 22 -18 44 -24 50 -5 5 -3 -7 5 -27 20 -47 20 -72 1 -38 -19 33 -19 21 0
-23 8 -20 15 -44 15 -54 -1 -10 -10 4 -20 31 -11 27 -24 54 -30 60 -6 6 -2 -9
9 -34 24 -52 28 -88 6 -50 -19 33 -19 21 0 -23 8 -20 15 -44 15 -54 -1 -10
-10 4 -20 31 -11 27 -24 54 -30 60 -6 6 -2 -9 9 -34 24 -52 28 -88 6 -50 -19
33 -19 21 0 -23 8 -20 15 -44 15 -54 -1 -10 -10 4 -20 31 -11 27 -24 54 -30
60 -6 6 -2 -9 9 -34 23 -50 29 -86 10 -60 -9 12 -10 11 -4 -5 3 -11 9 -33 11
-50 4 -21 -1 -16 -15 19 -11 27 -25 54 -31 60 -6 6 -2 -9 9 -34 23 -50 29 -86
10 -60 -9 12 -10 11 -4 -5 3 -11 8 -33 11 -50 4 -25 3 -26 -5 -10 l-10 20 0
-20 c-1 -17 -3 -18 -12 -5 -9 12 -10 11 -4 -5 3 -11 8 -33 11 -50 4 -25 3 -26
-5 -10 l-10 20 0 -20 c-1 -17 -3 -18 -12 -5 -9 12 -10 11 -4 -5 3 -11 8 -33
11 -50 4 -25 3 -26 -5 -10 l-10 20 0 -20 c-1 -17 -3 -18 -12 -5 -9 12 -10 11
-4 -5 3 -11 8 -33 11 -50 4 -25 3 -26 -5 -10 l-10 20 0 -20 c-1 -17 -3 -18
-12 -5 -9 12 -10 11 -4 -5 3 -11 8 -33 11 -50 4 -25 3 -26 -5 -10 l-10 20 0
-20 c-1 -17 -3 -18 -12 -5 -9 12 -10 11 -4 -5 3 -11 8 -33 11 -50 4 -25 3 -26
-5 -10 l-10 20 0 -20 c-1 -17 -3 -18 -12 -5 -9 12 -10 11 -4 -5 3 -11 8 -33
11 -50 4 -25 3 -26 -5 -10 l-10 20 0 -20 c-1 -17 -3 -18 -12 -5 -9 12 -10 11
-4 -5 3 -11 8 -33 11 -50 4 -25 3 -26 -5 -10 l-10 20 0 -20 c-1 -17 -3 -17
-11 -5 -13 20 -13 8 0 -26 6 -15 8 -41 4 -58 l-6 -30 -13 30 c-16 35 -19 26
-5 -12 6 -15 8 -41 4 -58 l-6 -30 -14 30 -13 29 5 -30 5 -30 -15 25 c-20 32
-20 22 -1 -21 9 -23 14 -28 15 -15 0 11 3 17 6 13 3 -3 3 -20 -1 -38 l-7 -33
-19 49 c-10 27 -25 55 -33 63 -8 9 -4 -7 10 -33 26 -52 34 -99 9 -55 -19 33
-18 26 3 -36 l18 -52 173 607 c96 333 191 659 212 724 l39 119 -20 38 c-11 21
-25 42 -32 46 -6 4 -4 -3 5 -17z"/>
<path d="M17540 12218 c23 -50 26 -85 5 -48 -19 33 -19 21 0 -23 8 -20 15 -44
15 -54 -1 -10 -10 4 -20 31 -11 27 -24 54 -30 60 -6 6 -2 -9 9 -34 23 -50 29
-86 10 -60 -9 12 -10 11 -4 -5 3 -11 9 -33 11 -50 4 -21 -1 -16 -15 19 -11 27
-25 54 -31 60 -6 6 -2 -9 9 -34 23 -50 29 -86 10 -60 -9 12 -10 11 -4 -5 3
-11 9 -33 11 -50 4 -21 -1 -16 -15 19 -11 27 -25 54 -31 60 -6 6 -2 -9 9 -34
23 -50 29 -86 10 -60 -9 12 -10 11 -4 -5 3 -11 8 -33 11 -50 4 -25 3 -26 -5
-10 l-10 20 0 -20 c-1 -17 -3 -18 -12 -5 -9 12 -10 11 -4 -5 3 -11 8 -33 11
-50 4 -25 3 -26 -5 -10 l-10 20 0 -20 c-1 -17 -3 -18 -12 -5 -9 12 -10 11 -4
-5 3 -11 8 -33 11 -50 4 -25 3 -26 -5 -10 l-10 20 0 -20 c-1 -17 -3 -18 -12
-5 -9 12 -10 11 -4 -5 3 -11 8 -33 11 -50 4 -25 3 -26 -5 -10 l-10 20 0 -20
c-1 -17 -3 -18 -12 -5 -9 12 -10 11 -4 -5 3 -11 8 -33 11 -50 4 -25 3 -26 -5
-10 l-10 20 0 -20 c-1 -17 -3 -18 -12 -5 -9 12 -10 11 -4 -5 3 -11 8 -33 11
-50 4 -25 3 -26 -5 -10 l-10 20 0 -20 c-1 -17 -3 -18 -12 -5 -9 12 -10 11 -4
-5 3 -11 8 -33 11 -50 4 -25 3 -26 -5 -10 l-10 20 0 -20 c-1 -17 -3 -18 -12
-5 -9 12 -10 11 -4 -5 3 -11 8 -33 11 -50 4 -25 3 -26 -5 -10 l-10 20 0 -20
c-1 -17 -3 -17 -11 -5 -13 20 -13 8 0 -26 6 -15 8 -41 4 -58 l-6 -30 -13 30
c-16 35 -19 26 -5 -12 6 -15 8 -41 4 -58 l-6 -30 -14 30 -13 29 5 -30 5 -30
-15 25 c-20 32 -20 22 -1 -21 9 -23 14 -28 15 -15 0 11 3 17 6 13 3 -3 3 -20
-1 -38 l-7 -33 -19 49 c-10 26 -23 53 -29 59 -6 6 -2 -9 9 -34 24 -52 28 -88
6 -50 -19 33 -18 26 4 -37 l17 -51 152 533 153 533 -21 56 c-12 30 -25 58 -30
61 -5 3 -1 -14 10 -37z"/>
<path d="M17210 11068 c23 -50 26 -85 5 -48 -19 33 -19 21 0 -23 8 -20 15 -44
15 -54 -1 -10 -10 4 -20 31 -11 27 -24 54 -30 60 -6 6 -2 -9 9 -34 23 -50 29
-86 10 -60 -9 12 -10 11 -4 -5 3 -11 9 -33 11 -50 4 -21 -1 -16 -15 19 -11 27
-25 54 -31 60 -6 6 -2 -9 9 -34 23 -50 29 -86 10 -60 -9 12 -10 11 -4 -5 3
-11 8 -33 11 -50 4 -25 3 -26 -5 -10 l-10 20 0 -20 c-1 -17 -3 -18 -12 -5 -9
12 -10 11 -4 -5 3 -11 8 -33 11 -50 4 -25 3 -26 -5 -10 l-10 20 0 -20 c-1 -17
-3 -18 -12 -5 -9 12 -10 11 -4 -5 3 -11 8 -33 11 -50 4 -25 3 -26 -5 -10 l-10
20 0 -20 c-1 -17 -3 -18 -12 -5 -9 12 -10 11 -4 -5 3 -11 8 -33 11 -50 4 -25
3 -26 -5 -10 l-10 20 0 -20 c-1 -17 -3 -18 -12 -5 -9 12 -10 11 -4 -5 3 -11 8
-33 11 -50 4 -25 3 -26 -5 -10 l-10 20 0 -20 c-1 -17 -3 -18 -12 -5 -9 12 -10
11 -4 -5 3 -11 8 -33 11 -50 4 -25 3 -26 -5 -10 l-10 20 0 -20 c-1 -17 -3 -18
-12 -5 -9 12 -10 11 -4 -5 3 -11 8 -33 11 -50 4 -25 3 -26 -5 -10 l-10 20 0
-20 c-1 -17 -3 -18 -12 -5 -9 12 -10 11 -4 -5 3 -11 8 -33 11 -50 4 -25 3 -26
-5 -10 l-10 20 0 -20 c-1 -17 -3 -17 -11 -5 -13 20 -13 8 0 -26 6 -15 8 -41 4
-58 l-6 -30 -13 30 c-16 35 -19 26 -5 -12 6 -15 8 -41 4 -58 l-6 -30 -13 30
c-16 35 -19 26 -5 -12 6 -15 8 -41 4 -58 l-7 -31 -14 40 c-7 22 -18 44 -24 50
-5 5 -3 -7 5 -27 20 -47 20 -72 1 -38 -19 33 -19 21 0 -21 9 -23 14 -28 15
-15 0 11 3 17 6 13 3 -3 3 -20 -1 -38 l-7 -33 -19 49 c-10 26 -23 53 -29 59
-6 6 -2 -9 9 -34 24 -52 28 -88 6 -50 -19 33 -18 26 4 -37 l17 -51 152 533
153 533 -21 56 c-12 30 -25 58 -30 61 -5 3 -1 -14 10 -37z"/>
<path d="M16880 9918 c23 -50 26 -85 5 -48 -19 33 -19 21 0 -23 8 -20 15 -44
15 -54 -1 -10 -10 4 -20 31 -11 27 -24 54 -30 60 -6 6 -2 -9 9 -34 23 -50 29
-86 10 -60 -9 12 -10 11 -4 -5 3 -11 9 -33 11 -50 4 -21 -1 -16 -15 19 -11 27
-25 54 -31 60 -6 6 -2 -9 9 -34 23 -50 29 -86 10 -60 -9 12 -10 11 -4 -5 3
-11 8 -33 11 -50 4 -25 3 -26 -5 -10 l-10 20 0 -20 c-1 -17 -3 -18 -12 -5 -9
12 -10 11 -4 -5 3 -11 8 -33 11 -50 4 -25 3 -26 -5 -10 l-10 20 0 -20 c-1 -17
-3 -18 -12 -5 -9 12 -10 11 -4 -5 3 -11 8 -33 11 -50 4 -25 3 -26 -5 -10 l-10
20 0 -20 c-1 -17 -3 -18 -12 -5 -9 12 -10 11 -4 -5 3 -11 8 -33 11 -50 4 -25
3 -26 -5 -10 l-10 20 0 -20 c-1 -17 -3 -18 -12 -5 -9 12 -10 11 -4 -5 3 -11 8
-33 11 -50 4 -25 3 -26 -5 -10 l-10 20 0 -20 c-1 -17 -3 -18 -12 -5 -9 12 -10
11 -4 -5 3 -11 8 -33 11 -50 4 -25 3 -26 -5 -10 l-10 20 0 -20 c-1 -17 -3 -18
-12 -5 -9 12 -10 11 -4 -5 3 -11 8 -33 11 -50 4 -25 3 -26 -5 -10 l-10 20 0
-20 c-1 -17 -3 -18 -12 -5 -9 12 -10 11 -4 -5 3 -11 8 -33 11 -50 4 -25 3 -26
-5 -10 l-10 20 0 -20 c-1 -17 -3 -17 -11 -5 -13 20 -13 8 0 -26 6 -15 8 -41 4
-58 l-6 -30 -13 30 c-16 35 -19 26 -5 -12 6 -15 8 -41 4 -58 l-6 -30 -14 30
-13 29 5 -30 5 -30 -15 25 c-20 32 -20 22 -1 -21 9 -23 14 -28 15 -15 0 11 3
17 6 13 3 -3 3 -20 -1 -38 l-7 -33 -19 49 c-10 27 -25 55 -33 63 -8 9 -4 -7
10 -33 26 -52 34 -99 9 -55 -19 33 -18 26 4 -37 l17 -51 142 498 143 498 -21
56 c-12 30 -25 58 -30 61 -5 3 -1 -14 10 -37z"/>
<path d="M16570 8838 c23 -50 26 -85 5 -48 -19 33 -19 21 0 -23 8 -20 15 -44
15 -54 -1 -10 -10 4 -20 31 -11 27 -24 54 -30 60 -6 6 -2 -9 9 -34 24 -52 28
-88 6 -50 -19 33 -19 21 0 -23 8 -20 15 -44 15 -54 -1 -10 -10 4 -20 31 -11
27 -24 54 -30 60 -6 6 -2 -9 9 -34 23 -50 29 -86 10 -60 -9 12 -10 11 -4 -5 3
-11 9 -33 11 -50 4 -21 -1 -16 -15 19 -11 27 -25 54 -31 60 -6 6 -2 -9 9 -34
23 -50 29 -86 10 -60 -9 12 -10 11 -4 -5 3 -11 8 -33 11 -50 4 -25 3 -26 -5
-10 l-10 20 0 -20 c-1 -17 -3 -18 -12 -5 -9 12 -10 11 -4 -5 3 -11 8 -33 11
-50 4 -25 3 -26 -5 -10 l-10 20 0 -20 c-1 -17 -3 -18 -12 -5 -9 12 -10 11 -4
-5 3 -11 8 -33 11 -50 4 -25 3 -26 -5 -10 l-10 20 0 -20 c-1 -17 -3 -18 -12
-5 -9 12 -10 11 -4 -5 3 -11 8 -33 11 -50 4 -25 3 -26 -5 -10 l-10 20 0 -20
c-1 -17 -3 -18 -12 -5 -9 12 -10 11 -4 -5 3 -11 8 -33 11 -50 4 -25 3 -26 -5
-10 l-10 20 0 -20 c-1 -17 -3 -18 -12 -5 -9 12 -10 11 -4 -5 3 -11 8 -33 11
-50 4 -25 3 -26 -5 -10 l-10 20 0 -20 c-1 -17 -3 -18 -12 -5 -9 12 -10 11 -4
-5 3 -11 8 -33 11 -50 4 -25 3 -26 -5 -10 l-10 20 0 -20 c-1 -17 -3 -18 -12
-5 -9 12 -10 11 -4 -5 3 -11 8 -33 11 -50 4 -25 3 -26 -5 -10 l-10 20 0 -20
c-1 -17 -3 -17 -11 -5 -13 20 -13 8 0 -26 6 -15 8 -41 4 -58 l-6 -30 -13 30
c-16 35 -19 26 -5 -12 6 -15 8 -41 4 -58 l-6 -30 -14 30 -13 29 5 -30 5 -30
-15 25 c-20 32 -20 22 -1 -21 9 -23 14 -28 15 -15 0 11 3 17 6 13 3 -3 3 -20
-1 -38 l-7 -33 -19 49 c-10 27 -25 55 -33 63 -8 9 -4 -7 10 -33 26 -52 34 -99
9 -55 -19 33 -18 26 4 -37 l17 -51 152 533 153 533 -21 56 c-12 30 -25 58 -30
61 -5 3 -1 -14 10 -37z"/>
<path d="M16240 7688 c23 -50 26 -85 5 -48 -19 33 -19 21 0 -23 8 -20 15 -44
15 -54 -1 -10 -10 4 -20 31 -11 27 -24 54 -30 60 -6 6 -2 -9 9 -34 23 -50 29
-86 10 -60 -9 12 -10 11 -4 -5 3 -11 9 -33 11 -50 4 -21 -1 -16 -15 19 -11 27
-25 54 -31 60 -6 6 -2 -9 9 -34 23 -50 29 -86 10 -60 -9 12 -10 11 -4 -5 3
-11 8 -33 11 -50 4 -25 3 -26 -5 -10 l-10 20 0 -20 c-1 -17 -3 -18 -12 -5 -9
12 -10 11 -4 -5 3 -11 8 -33 11 -50 4 -25 3 -26 -5 -10 l-10 20 0 -20 c-1 -17
-3 -18 -12 -5 -9 12 -10 11 -4 -5 3 -11 8 -33 11 -50 4 -25 3 -26 -5 -10 l-10
20 0 -20 c-1 -17 -3 -18 -12 -5 -9 12 -10 11 -4 -5 3 -11 8 -33 11 -50 4 -25
3 -26 -5 -10 l-10 20 0 -20 c-1 -17 -3 -18 -12 -5 -9 12 -10 11 -4 -5 3 -11 8
-33 11 -50 4 -25 3 -26 -5 -10 l-10 20 0 -20 c-1 -17 -3 -18 -12 -5 -9 12 -10
11 -4 -5 3 -11 8 -33 11 -50 4 -25 3 -26 -5 -10 l-10 20 0 -20 c-1 -17 -3 -18
-12 -5 -9 12 -10 11 -4 -5 3 -11 8 -33 11 -50 4 -25 3 -26 -5 -10 l-10 20 0
-20 c-1 -17 -3 -18 -12 -5 -9 12 -10 11 -4 -5 3 -11 8 -33 11 -50 4 -25 3 -26
-5 -10 l-10 20 0 -20 c-1 -17 -3 -18 -12 -5 -9 12 -10 11 -4 -5 3 -11 8 -33
11 -50 4 -25 3 -26 -5 -10 l-10 20 0 -20 c-1 -17 -3 -17 -11 -5 -13 20 -13 8
0 -26 6 -15 8 -41 4 -58 l-6 -30 -13 30 c-16 35 -19 26 -5 -12 6 -15 8 -41 4
-58 l-7 -31 -14 40 c-7 22 -18 44 -24 50 -5 5 -3 -7 5 -27 20 -47 20 -72 1
-38 -19 33 -19 21 0 -21 9 -23 14 -28 15 -15 0 11 3 17 6 13 3 -3 3 -20 -1
-38 l-7 -33 -19 49 c-10 26 -23 53 -29 59 -6 6 -2 -9 9 -34 24 -52 28 -88 6
-50 -19 33 -18 26 4 -37 l17 -51 152 533 153 533 -21 56 c-12 30 -25 58 -30
61 -5 3 -1 -14 10 -37z"/>
<path d="M15910 6538 c23 -50 26 -85 5 -48 -19 33 -19 21 0 -23 8 -20 15 -44
15 -54 -1 -10 -10 4 -20 31 -11 27 -24 54 -30 60 -6 6 -2 -9 9 -34 23 -50 29
-86 10 -60 -9 12 -10 11 -4 -5 3 -11 9 -33 11 -50 4 -21 -1 -16 -15 19 -11 27
-25 54 -31 60 -6 6 -2 -9 9 -34 23 -50 29 -86 10 -60 -9 12 -10 11 -4 -5 3
-11 8 -33 11 -50 4 -25 3 -26 -5 -10 l-10 20 0 -20 c-1 -17 -3 -18 -12 -5 -9
12 -10 11 -4 -5 3 -11 8 -33 11 -50 4 -25 3 -26 -5 -10 l-10 20 0 -20 c-1 -17
-3 -18 -12 -5 -9 12 -10 11 -4 -5 3 -11 8 -33 11 -50 4 -25 3 -26 -5 -10 l-10
20 0 -20 c-1 -17 -3 -18 -12 -5 -9 12 -10 11 -4 -5 3 -11 8 -33 11 -50 4 -25
3 -26 -5 -10 l-10 20 0 -20 c-1 -17 -3 -18 -12 -5 -9 12 -10 11 -4 -5 3 -11 8
-33 11 -50 4 -25 3 -26 -5 -10 l-10 20 0 -20 c-1 -17 -3 -18 -12 -5 -9 12 -10
11 -4 -5 3 -11 8 -33 11 -50 4 -25 3 -26 -5 -10 l-10 20 0 -20 c-1 -17 -3 -18
-12 -5 -9 12 -10 11 -4 -5 3 -11 8 -33 11 -50 4 -25 3 -26 -5 -10 l-10 20 0
-20 c-1 -17 -3 -18 -12 -5 -9 12 -10 11 -4 -5 3 -11 8 -33 11 -50 4 -25 3 -26
-5 -10 l-10 20 0 -20 c-1 -17 -3 -17 -11 -5 -13 20 -13 8 0 -26 6 -15 8 -41 4
-58 l-6 -30 -13 30 c-16 35 -19 26 -5 -12 6 -15 8 -41 4 -58 l-6 -30 -14 30
-13 29 5 -30 5 -30 -15 25 c-20 32 -20 22 -1 -21 9 -23 14 -28 15 -15 0 11 3
17 6 13 3 -3 3 -20 -1 -38 l-7 -33 -19 49 c-10 27 -25 55 -33 63 -8 9 -4 -7
10 -33 26 -52 34 -99 9 -55 -19 33 -18 26 4 -37 l17 -51 142 498 143 498 -21
56 c-12 30 -25 58 -30 61 -5 3 -1 -14 10 -37z"/>
<path d="M15600 5458 c23 -50 26 -85 5 -48 -19 33 -19 21 0 -23 8 -20 15 -44
15 -54 -1 -10 -10 4 -20 31 -11 27 -24 54 -30 60 -6 6 -2 -9 9 -34 24 -52 28
-88 6 -50 -19 33 -19 21 0 -23 8 -20 15 -44 15 -54 -1 -10 -10 4 -20 31 -11
27 -24 54 -30 60 -6 6 -2 -9 9 -34 23 -50 29 -86 10 -60 -9 12 -10 11 -4 -5 3
-11 9 -33 11 -50 4 -21 -1 -16 -15 19 -11 27 -25 54 -31 60 -6 6 -2 -9 9 -34
23 -50 29 -86 10 -60 -9 12 -10 11 -4 -5 3 -11 8 -33 11 -50 4 -25 3 -26 -5
-10 l-10 20 0 -20 c-1 -17 -3 -18 -12 -5 -9 12 -10 11 -4 -5 3 -11 8 -33 11
-50 4 -25 3 -26 -5 -10 l-10 20 0 -20 c-1 -17 -3 -18 -12 -5 -9 12 -10 11 -4
-5 3 -11 8 -33 11 -50 4 -25 3 -26 -5 -10 l-10 20 0 -20 c-1 -17 -3 -18 -12
-5 -9 12 -10 11 -4 -5 3 -11 8 -33 11 -50 4 -25 3 -26 -5 -10 l-10 20 0 -20
c-1 -17 -3 -18 -12 -5 -9 12 -10 11 -4 -5 3 -11 8 -33 11 -50 4 -25 3 -26 -5
-10 l-10 20 0 -20 c-1 -17 -3 -18 -12 -5 -9 12 -10 11 -4 -5 3 -11 8 -33 11
-50 4 -25 3 -26 -5 -10 l-10 20 0 -20 c-1 -17 -3 -18 -12 -5 -9 12 -10 11 -4
-5 3 -11 8 -33 11 -50 4 -25 3 -26 -5 -10 l-10 20 0 -20 c-1 -17 -3 -18 -12
-5 -9 12 -10 11 -4 -5 3 -11 8 -33 11 -50 4 -25 3 -26 -5 -10 l-10 20 0 -20
c-1 -17 -3 -17 -11 -5 -13 20 -13 8 0 -26 6 -15 8 -41 4 -58 l-6 -30 -13 30
c-16 35 -19 26 -5 -12 6 -15 8 -41 4 -58 l-6 -30 -14 30 -13 29 5 -30 5 -30
-15 25 c-20 32 -20 22 -1 -21 9 -23 14 -28 15 -15 0 11 3 17 6 13 3 -3 3 -20
-1 -38 l-7 -33 -19 49 c-10 27 -25 55 -33 63 -8 9 -4 -7 10 -33 26 -52 34 -99
9 -55 -19 33 -18 26 4 -37 l17 -51 152 533 153 533 -21 56 c-12 30 -25 58 -30
61 -5 3 -1 -14 10 -37z"/>
<path d="M15270 4308 c23 -50 26 -85 5 -48 -19 33 -19 21 0 -23 8 -20 15 -44
15 -54 -1 -10 -10 4 -20 31 -11 27 -24 54 -30 60 -6 6 -2 -9 9 -34 23 -50 29
-86 10 -60 -9 12 -10 11 -4 -5 3 -11 9 -33 11 -50 4 -21 -1 -16 -15 19 -11 27
-25 54 -31 60 -6 6 -2 -9 9 -34 23 -50 29 -86 10 -60 -9 12 -10 11 -4 -5 3
-11 8 -33 11 -50 4 -25 3 -26 -5 -10 l-10 20 0 -20 c-1 -17 -3 -18 -12 -5 -9
12 -10 11 -4 -5 3 -11 8 -33 11 -50 4 -25 3 -26 -5 -10 l-10 20 0 -20 c-1 -17
-3 -18 -12 -5 -9 12 -10 11 -4 -5 3 -11 8 -33 11 -50 4 -25 3 -26 -5 -10 l-10
20 0 -20 c-1 -17 -3 -18 -12 -5 -9 12 -10 11 -4 -5 3 -11 8 -33 11 -50 4 -25
3 -26 -5 -10 l-10 20 0 -20 c-1 -17 -3 -18 -12 -5 -9 12 -10 11 -4 -5 3 -11 8
-33 11 -50 4 -25 3 -26 -5 -10 l-10 20 0 -20 c-1 -17 -3 -18 -12 -5 -9 12 -10
11 -4 -5 3 -11 8 -33 11 -50 4 -25 3 -26 -5 -10 l-10 20 0 -20 c-1 -17 -3 -18
-12 -5 -9 12 -10 11 -4 -5 3 -11 8 -33 11 -50 4 -25 3 -26 -5 -10 l-10 20 0
-20 c-1 -17 -3 -18 -12 -5 -9 12 -10 11 -4 -5 3 -11 8 -33 11 -50 4 -25 3 -26
-5 -10 l-10 20 0 -20 c-1 -17 -3 -18 -12 -5 -9 12 -10 11 -4 -5 3 -11 8 -33
11 -50 4 -25 3 -26 -5 -10 l-10 20 0 -20 c-1 -17 -3 -17 -11 -5 -13 20 -13 8
0 -26 6 -15 8 -41 4 -58 l-6 -30 -13 30 c-16 35 -19 26 -5 -12 6 -15 8 -41 4
-58 l-6 -30 -14 30 -13 29 5 -30 5 -30 -15 25 c-20 32 -20 22 -1 -21 9 -23 14
-28 15 -15 0 11 3 17 6 13 3 -3 3 -20 -1 -38 l-7 -33 -19 49 c-10 26 -23 53
-29 59 -6 6 -2 -9 9 -34 24 -52 28 -88 6 -50 -19 33 -18 26 4 -37 l17 -51 152
533 153 533 -21 56 c-12 30 -25 58 -30 61 -5 3 -1 -14 10 -37z"/>
<path d="M14940 3160 c23 -52 26 -87 5 -50 -19 33 -19 21 0 -23 8 -20 15 -44
15 -54 -1 -10 -10 4 -20 31 -11 27 -24 54 -30 60 -6 6 -2 -9 9 -34 23 -50 29
-86 10 -60 -9 12 -10 11 -4 -5 3 -11 9 -33 11 -50 4 -21 -1 -16 -15 19 -11 27
-25 54 -31 60 -6 6 -2 -9 9 -34 23 -50 29 -86 10 -60 -9 12 -10 11 -4 -5 3
-11 8 -33 11 -50 4 -25 3 -26 -5 -10 l-10 20 0 -20 c-1 -17 -3 -18 -12 -5 -9
12 -10 11 -4 -5 3 -11 8 -33 11 -50 4 -25 3 -26 -5 -10 l-10 20 0 -20 c-1 -17
-3 -18 -12 -5 -9 12 -10 11 -4 -5 3 -11 8 -33 11 -50 4 -25 3 -26 -5 -10 l-10
20 0 -20 c-1 -17 -3 -18 -12 -5 -9 12 -10 11 -4 -5 3 -11 8 -33 11 -50 4 -25
3 -26 -5 -10 l-10 20 0 -20 c-1 -17 -3 -18 -12 -5 -9 12 -10 11 -4 -5 3 -11 8
-33 11 -50 4 -25 3 -26 -5 -10 l-10 20 0 -20 c-1 -17 -3 -18 -12 -5 -9 12 -10
11 -4 -5 3 -11 8 -33 11 -50 4 -25 3 -26 -5 -10 l-10 20 0 -20 c-1 -17 -3 -18
-12 -5 -9 12 -10 11 -4 -5 3 -11 8 -33 11 -50 4 -25 3 -26 -5 -10 l-10 20 0
-20 c-1 -17 -3 -18 -12 -5 -9 12 -10 11 -4 -5 3 -11 8 -33 11 -50 4 -25 3 -26
-5 -10 l-10 20 0 -20 c-1 -17 -3 -18 -12 -5 -9 12 -10 12 -5 -3 3 -11 9 -31
12 -45 4 -21 3 -24 -5 -12 -8 11 -10 7 -6 -20 l6 -35 -15 30 -15 30 5 -30 5
-30 -15 25 c-20 32 -20 22 -1 -23 8 -20 15 -44 14 -54 0 -10 -7 0 -15 22 -8
22 -19 44 -25 50 -5 5 -3 -7 5 -27 20 -47 20 -72 1 -38 -19 33 -19 21 0 -23 8
-20 15 -44 15 -54 -1 -10 -10 4 -20 31 -11 27 -24 54 -30 60 -6 6 -2 -9 9 -34
22 -49 29 -87 11 -60 -8 11 -9 7 -5 -15 l6 -30 -15 25 c-20 32 -20 22 -1 -23
8 -20 15 -44 15 -54 -1 -10 -10 4 -20 31 -11 27 -24 54 -31 60 -6 6 -4 -3 5
-21 20 -40 21 -63 1 -37 -13 17 -13 15 0 -18 18 -44 20 -71 5 -48 -8 11 -9 7
-5 -15 l6 -30 -16 25 c-12 18 -14 19 -10 5 17 -48 15 -57 -5 -22 -27 49 -36
48 -10 -3 23 -45 27 -79 4 -37 -20 37 -29 35 -9 -3 8 -16 15 -35 15 -42 -1 -7
-10 4 -20 24 -11 20 -24 39 -30 43 -5 3 2 -14 15 -37 14 -24 25 -50 24 -58 0
-8 -9 2 -19 22 -11 20 -24 39 -30 43 -5 3 2 -14 15 -37 14 -24 25 -50 24 -58
0 -8 -9 2 -20 23 -11 20 -22 37 -24 37 -3 0 4 -18 15 -40 21 -41 28 -78 10
-50 -8 13 -10 13 -10 1 0 -11 -4 -9 -15 5 -14 18 -14 17 -3 -9 8 -20 14 -24
20 -15 6 10 8 10 8 -2 0 -8 -5 -22 -10 -30 -5 -8 -10 -10 -10 -4 0 5 -7 19
-15 30 -14 17 -14 16 0 -13 17 -36 21 -68 5 -43 -8 13 -10 13 -10 1 0 -11 -4
-9 -16 5 -15 18 -15 18 -5 -3 14 -27 14 -36 1 -28 -6 3 -7 -1 -3 -10 5 -13 7
-14 14 -3 10 16 12 -2 3 -27 -5 -13 -8 -14 -15 -3 -7 10 -9 10 -9 -1 0 -11 -4
-9 -15 5 -15 18 -15 18 -8 0 4 -13 3 -17 -5 -12 -8 5 -10 1 -5 -10 4 -12 3
-15 -5 -10 -8 5 -10 1 -5 -10 4 -12 3 -15 -5 -10 -8 5 -10 1 -5 -10 4 -12 3
-15 -5 -10 -8 5 -10 1 -5 -10 4 -12 3 -15 -5 -10 -8 5 -10 2 -6 -8 4 -11 0
-14 -15 -11 -12 2 -19 0 -16 -5 3 -5 14 -7 25 -5 23 4 24 1 10 -24 -6 -13 -19
-18 -40 -16 -16 1 -27 -1 -24 -6 3 -5 10 -6 16 -3 8 5 9 1 5 -10 -5 -11 -3
-15 4 -10 7 4 10 1 7 -7 -3 -8 -10 -15 -16 -15 -7 -1 -15 -3 -19 -4 -5 -1 -12
-2 -16 -1 -5 1 -6 -3 -2 -9 5 -8 11 -7 21 1 8 7 14 7 14 1 0 -5 -7 -15 -15
-22 -8 -7 -15 -9 -15 -5 0 4 -7 2 -15 -5 -8 -7 -15 -9 -15 -5 0 4 -7 2 -15 -5
-8 -7 -15 -9 -15 -5 0 5 -8 1 -18 -8 -10 -10 -22 -15 -25 -12 -4 3 -5 2 -2 -2
3 -4 -7 -19 -22 -35 -15 -15 -23 -28 -19 -28 5 0 2 -8 -5 -17 -13 -16 -12 -17
3 -4 10 7 16 17 13 21 -2 3 14 24 35 45 22 22 40 35 40 31 0 -5 7 -3 15 4 8 7
15 9 15 5 0 -4 7 -2 15 5 8 7 15 8 15 2 0 -12 -25 -34 -32 -27 -2 2 -29 -21
-59 -53 l-54 -57 58 55 c31 30 57 49 57 44 0 -15 -95 -104 -148 -139 -23 -15
-42 -30 -42 -32 0 -11 69 38 126 90 71 65 89 65 22 1 -54 -51 -100 -86 -169
-125 -30 -17 -45 -28 -34 -24 53 16 138 78 217 157 49 47 88 82 88 77 0 -5
-39 -49 -87 -97 -151 -153 -320 -219 -532 -210 -183 8 -324 71 -463 206 -43
42 -78 80 -78 85 0 5 28 -19 63 -55 85 -87 194 -159 277 -183 14 -3 -17 15
-68 40 -67 35 -115 68 -173 122 -43 41 -79 80 -79 85 0 6 36 -23 79 -65 43
-41 89 -80 102 -87 18 -8 16 -5 -6 12 -60 46 -95 80 -90 88 3 4 -2 13 -10 20
-8 7 -15 9 -15 4 0 -4 -11 3 -25 16 -29 28 -34 51 -5 25 11 -10 20 -14 20 -10
0 5 16 -6 35 -25 19 -18 32 -36 30 -40 -3 -4 5 -16 18 -26 22 -19 22 -19 4 2
-9 11 -15 23 -12 25 2 3 -16 25 -40 49 -25 24 -45 40 -45 36 0 -5 -7 -3 -15 4
-20 17 -19 29 3 25 9 -2 18 -4 20 -5 1 -2 10 -3 20 -4 9 -1 24 -5 32 -11 13
-7 13 -6 2 7 -7 9 -21 15 -30 13 -9 -1 -23 3 -31 9 -8 6 -16 10 -18 9 -1 -2
-5 -2 -8 -2 -3 1 -14 3 -25 4 -11 1 -22 4 -25 5 -3 1 -10 3 -17 4 -6 0 -13 7
-16 15 -3 8 0 11 7 7 7 -4 9 -1 5 8 -4 11 0 14 15 11 11 -2 23 0 25 4 3 4 -9
7 -26 7 -17 -1 -33 4 -35 11 -3 8 3 11 16 8 11 -2 23 0 26 5 3 5 -4 7 -16 5
-14 -3 -19 0 -16 8 3 8 -4 13 -18 13 -16 0 -21 -5 -18 -15 3 -11 0 -10 -11 3
-18 22 -21 40 -6 31 6 -4 3 10 -7 29 -9 20 -20 31 -23 25 -4 -6 -13 3 -20 20
-11 27 -10 35 10 68 17 29 18 34 4 22 -16 -13 -17 -12 -11 6 7 20 7 20 -8 1
-11 -14 -15 -16 -15 -5 0 12 -2 12 -10 -1 -9 -13 -10 -13 -10 0 0 12 -2 12 -9
2 -5 -9 -13 0 -24 30 -23 58 -20 73 3 23 10 -22 19 -33 19 -25 1 12 3 12 10 2
7 -11 9 -10 14 3 4 9 3 13 -3 10 -13 -8 -13 1 0 26 6 10 8 19 6 19 -3 0 -12
-12 -20 -27 -8 -16 -15 -22 -16 -15 0 7 5 23 11 34 8 15 8 19 0 14 -6 -4 -11
-1 -11 6 0 9 -3 9 -10 -2 -16 -25 -12 7 5 43 14 29 14 30 0 13 -8 -11 -15 -25
-15 -30 0 -6 -4 -5 -9 3 -5 8 -7 -5 -6 -35 5 -86 130 -344 230 -474 187 -243
480 -351 761 -280 277 70 464 273 617 671 58 149 89 249 257 834 l140 489 -15
47 c-9 25 -22 55 -30 65 -9 12 -7 1 5 -26z m-311 -1249 c-48 -144 -117 -314
-155 -380 -49 -86 -87 -142 -91 -137 -3 3 4 18 16 34 12 17 21 33 21 37 0 4
-20 -20 -45 -54 -25 -34 -47 -61 -51 -61 -7 0 3 15 48 76 26 35 36 57 32 70
-4 13 -3 15 3 7 6 -9 14 -4 27 17 9 17 14 34 11 40 -3 5 5 31 19 57 14 26 25
41 26 33 0 -13 1 -13 10 0 9 13 10 13 10 0 1 -8 8 -2 16 13 8 16 12 38 9 50
-4 15 -3 18 3 9 11 -16 7 -26 73 167 31 90 47 153 44 170 l-5 26 10 -24 c9
-20 3 -48 -31 -150z"/>
<path d="M10945 14774 c-11 -2 -45 -9 -75 -15 -60 -12 -182 -65 -231 -99 -51
-37 -24 -34 33 4 71 47 166 82 265 96 235 35 478 -72 639 -281 46 -60 62 -96
19 -44 -15 19 -24 25 -25 15 0 -10 -7 -7 -20 10 -13 16 -20 20 -20 10 0 -8
-25 9 -57 40 -32 30 -45 41 -29 23 15 -17 28 -34 27 -37 -1 -3 1 -5 3 -3 3 1
16 -9 30 -22 14 -14 26 -21 26 -16 0 4 9 0 20 -10 25 -22 27 -43 3 -24 -16 11
-16 11 -5 -1 7 -8 18 -15 24 -15 6 0 13 -6 16 -14 3 -9 0 -11 -9 -6 -8 5 -11
4 -6 -1 5 -5 14 -9 19 -9 6 0 13 -5 15 -12 3 -8 -3 -11 -17 -8 -11 2 -18 0
-15 -6 4 -5 11 -6 17 -3 7 5 9 2 6 -8 -4 -8 -1 -15 7 -15 8 0 11 7 7 15 -3 10
-1 13 6 8 8 -5 10 -1 6 11 -5 16 -4 16 10 -1 18 -22 21 -41 6 -31 -5 3 -7 0
-4 -9 4 -11 0 -14 -15 -11 -11 2 -23 0 -26 -5 -3 -5 4 -7 16 -5 15 3 19 0 15
-10 -3 -9 1 -12 15 -10 14 3 19 0 16 -9 -3 -7 1 -13 8 -13 7 0 11 6 8 14 -11
28 8 11 26 -24 11 -21 20 -33 20 -28 1 6 -13 34 -29 64 -17 30 -28 57 -25 59
6 6 109 -210 119 -248 l7 -25 -15 25 c-10 15 -15 19 -16 10 0 -12 -2 -12 -8
-2 -6 9 -12 5 -20 -13 -7 -15 -8 -24 -2 -20 15 9 12 -8 -7 -35 -14 -21 -15
-23 -1 -12 9 7 22 26 28 43 10 22 15 27 21 17 5 -7 9 -20 9 -28 0 -12 -2 -12
-9 -2 -7 11 -9 10 -14 -3 -4 -9 -3 -13 3 -10 16 10 12 -7 -10 -43 -12 -19 -16
-31 -10 -27 5 3 19 23 30 43 23 44 27 25 5 -21 -14 -29 -14 -30 0 -13 11 14
15 16 15 5 0 -12 2 -12 10 1 5 8 7 26 4 40 -4 19 -1 17 11 -9 16 -35 21 -66 7
-44 -5 9 -15 -2 -30 -32 -26 -54 -21 -60 7 -7 11 20 20 30 20 22 1 -8 -10 -34
-24 -58 -13 -23 -20 -40 -15 -37 6 4 19 23 30 43 10 20 19 31 20 24 0 -7 -7
-26 -15 -42 -20 -38 -11 -40 9 -2 20 36 20 10 1 -28 -20 -38 -11 -40 9 -2 20
36 20 10 1 -28 -20 -38 -11 -40 9 -2 8 15 15 21 16 13 0 -8 2 -12 5 -9 3 2 -4
31 -15 63 -11 32 -18 66 -15 75 6 20 -48 166 -109 294 -159 330 -384 506 -667
520 -52 3 -103 3 -114 0z"/>
<path d="M10336 8365 c4 -24 3 -27 -5 -15 -9 12 -10 9 -6 -15 6 -29 5 -29 -15
8 -27 49 -36 48 -10 -3 11 -21 20 -45 20 -52 -1 -7 -10 4 -21 25 -11 20 -22
37 -24 37 -3 0 4 -18 15 -40 11 -21 20 -45 20 -52 -1 -7 -10 4 -20 24 -11 20
-24 39 -30 43 -5 3 2 -14 15 -37 14 -24 25 -50 24 -58 0 -8 -7 -3 -15 13 -20
37 -29 35 -9 -3 19 -38 19 -64 -1 -27 -20 37 -29 35 -9 -3 19 -38 19 -64 -1
-27 -20 37 -29 35 -9 -3 19 -38 19 -64 -1 -27 -20 37 -29 35 -9 -3 19 -38 19
-64 -1 -27 -23 42 -25 32 -4 -15 22 -48 28 -85 10 -58 -8 11 -9 7 -4 -15 4
-23 3 -27 -5 -15 -9 12 -10 9 -6 -15 4 -25 2 -23 -14 13 -11 23 -23 42 -26 42
-3 0 -1 -9 5 -19 16 -30 12 -47 -6 -25 -15 18 -15 18 -5 -3 16 -33 13 -50 -5
-27 -15 18 -15 18 -5 -3 13 -27 14 -46 2 -39 -5 4 -7 -4 -3 -16 3 -14 1 -19
-6 -14 -8 5 -8 -1 -1 -24 14 -38 21 -39 13 -2 -4 21 -3 24 5 12 9 -12 10 -8 6
15 -5 26 -5 27 6 11 9 -15 8 -31 -7 -78 l-18 -59 -12 28 -13 28 5 -30 c4 -24
3 -27 -5 -15 -9 12 -10 9 -6 -15 6 -29 5 -29 -15 8 -27 49 -36 48 -10 -3 11
-21 20 -45 20 -52 -1 -7 -10 4 -21 25 -11 20 -22 37 -24 37 -3 0 4 -18 15 -40
11 -21 20 -45 20 -52 -1 -7 -10 4 -20 24 -11 20 -24 39 -30 43 -5 3 2 -14 15
-37 14 -24 25 -50 24 -58 0 -8 -7 -3 -15 13 -20 37 -29 35 -9 -3 19 -38 19
-64 -1 -27 -20 37 -29 35 -9 -3 19 -38 19 -64 -1 -27 -20 37 -29 35 -9 -3 19
-38 19 -64 -1 -27 -20 37 -29 35 -9 -3 19 -38 19 -64 -1 -27 -23 42 -25 32 -4
-15 22 -48 28 -85 10 -58 -8 11 -9 7 -4 -15 4 -23 3 -27 -5 -15 -9 12 -10 9
-6 -15 4 -25 2 -23 -14 13 -11 23 -23 42 -26 42 -3 0 -1 -9 5 -19 16 -30 12
-47 -6 -25 -15 18 -15 18 -5 -3 16 -33 13 -50 -5 -27 -15 18 -15 18 -5 -3 13
-27 14 -46 2 -39 -5 4 -7 -4 -3 -16 3 -14 1 -19 -6 -14 -8 5 -8 -1 -1 -24 14
-38 21 -39 13 -2 -4 21 -3 24 5 12 9 -12 10 -8 6 15 -5 26 -5 27 6 11 9 -15 8
-31 -7 -78 l-18 -59 -12 28 -13 28 5 -30 c4 -24 3 -27 -5 -15 -9 12 -10 9 -6
-15 6 -29 5 -29 -15 8 -27 49 -36 48 -10 -3 11 -21 20 -45 20 -52 -1 -7 -10 4
-21 25 -11 20 -22 37 -24 37 -3 0 4 -18 15 -40 11 -21 20 -45 20 -52 -1 -7
-10 4 -20 24 -11 20 -24 39 -30 43 -5 3 2 -14 15 -37 14 -24 25 -50 24 -58 0
-8 -7 -3 -15 13 -20 37 -29 35 -9 -3 19 -38 19 -64 -1 -27 -20 37 -29 35 -9
-3 19 -38 19 -64 -1 -27 -20 37 -29 35 -9 -3 19 -38 19 -64 -1 -27 -20 37 -29
35 -9 -3 19 -38 19 -64 -1 -27 -23 42 -25 32 -4 -15 22 -48 28 -85 10 -58 -8
11 -9 7 -4 -15 4 -23 3 -27 -5 -15 -9 12 -10 9 -6 -15 4 -25 2 -23 -14 13 -11
23 -23 42 -26 42 -3 0 -1 -9 5 -19 16 -30 12 -47 -6 -25 -15 18 -15 18 -5 -3
16 -33 13 -50 -5 -27 -15 18 -15 18 -5 -3 13 -27 14 -46 2 -39 -5 4 -7 -4 -3
-16 3 -13 1 -19 -5 -15 -7 5 -9 -1 -5 -15 3 -14 1 -19 -6 -14 -8 5 -8 -1 -1
-24 14 -38 21 -39 13 -2 -4 21 -3 24 5 12 9 -12 10 -8 5 15 -4 23 -3 27 5 15
9 -12 10 -8 6 15 -5 26 -5 27 6 11 9 -15 8 -31 -7 -78 l-18 -59 -12 28 -13 28
5 -30 c4 -24 3 -27 -5 -15 -9 12 -10 9 -6 -15 6 -29 5 -29 -15 8 -27 49 -36
48 -10 -3 11 -21 20 -45 20 -52 -1 -7 -10 4 -21 25 -11 20 -22 37 -24 37 -3 0
4 -18 15 -40 11 -21 20 -45 20 -52 -1 -7 -10 4 -20 24 -11 20 -24 39 -30 43
-5 3 2 -14 15 -37 14 -24 25 -50 24 -58 0 -8 -7 -3 -15 13 -20 37 -29 35 -9
-3 19 -38 19 -64 -1 -27 -20 37 -29 35 -9 -3 19 -38 19 -64 -1 -27 -20 37 -29
35 -9 -3 19 -38 19 -64 -1 -27 -20 37 -29 35 -9 -3 19 -38 19 -64 -1 -27 -23
42 -25 32 -4 -15 22 -48 28 -85 10 -58 -8 11 -9 7 -4 -15 4 -23 3 -27 -5 -15
-9 12 -10 9 -6 -15 4 -25 2 -23 -14 13 -11 23 -23 42 -26 42 -3 0 -1 -9 5 -19
16 -30 12 -47 -6 -25 -15 18 -15 18 -5 -3 16 -33 13 -50 -5 -27 -15 18 -15 18
-5 -3 13 -27 14 -46 2 -39 -5 4 -7 -4 -3 -16 3 -13 1 -19 -5 -15 -7 5 -9 -1
-5 -15 3 -14 1 -19 -6 -14 -8 5 -8 -1 -1 -24 14 -38 21 -39 13 -2 -4 21 -3 24
5 12 9 -12 10 -8 5 15 -4 23 -3 27 5 15 9 -12 10 -8 6 15 -5 26 -5 27 6 11 9
-15 8 -31 -7 -78 l-18 -59 -12 28 -13 28 5 -30 c4 -24 3 -27 -5 -15 -9 12 -10
9 -6 -15 6 -29 5 -29 -15 8 -27 49 -36 48 -10 -3 11 -21 20 -45 20 -52 -1 -7
-10 4 -21 25 -11 20 -22 37 -24 37 -3 0 4 -18 15 -40 11 -21 20 -45 20 -52 -1
-7 -10 4 -20 24 -11 20 -24 39 -30 43 -5 3 2 -14 15 -37 14 -24 25 -50 24 -58
0 -8 -7 -3 -15 13 -20 37 -29 35 -9 -3 19 -38 19 -64 -1 -27 -20 37 -29 35 -9
-3 19 -38 19 -64 -1 -27 -20 37 -29 35 -9 -3 19 -38 19 -64 -1 -27 -20 37 -29
35 -9 -3 19 -38 19 -64 -1 -27 -23 42 -25 32 -4 -15 22 -48 28 -85 10 -58 -8
11 -9 7 -4 -15 4 -23 3 -27 -5 -15 -9 12 -10 9 -6 -15 4 -25 2 -23 -14 13 -11
23 -23 42 -26 42 -3 0 -1 -9 5 -19 16 -30 12 -47 -6 -25 -15 18 -15 18 -5 -3
16 -33 13 -50 -5 -27 -15 18 -15 18 -5 -3 13 -27 14 -46 2 -39 -5 4 -7 -4 -3
-16 3 -13 1 -19 -5 -15 -7 5 -9 -1 -5 -15 3 -14 1 -19 -6 -14 -8 5 -8 -1 -1
-24 14 -38 21 -39 13 -2 -4 21 -3 24 5 12 9 -12 10 -8 5 15 -4 23 -3 27 5 15
9 -12 10 -8 6 15 -5 26 -5 27 6 11 9 -15 8 -31 -7 -78 l-18 -59 -12 28 -13 28
5 -30 c4 -24 3 -27 -5 -15 -9 12 -10 9 -6 -15 6 -29 5 -29 -15 8 -27 49 -36
48 -10 -3 11 -21 20 -45 20 -52 -1 -7 -10 4 -21 25 -11 20 -22 37 -24 37 -3 0
4 -18 15 -40 11 -21 20 -45 20 -52 -1 -7 -10 4 -20 24 -11 20 -24 39 -30 43
-5 3 2 -14 15 -37 14 -24 25 -50 24 -58 0 -8 -7 -3 -15 13 -20 37 -29 35 -9
-3 19 -38 19 -64 -1 -27 -20 37 -29 35 -9 -3 19 -38 19 -64 -1 -27 -20 37 -29
35 -9 -3 19 -38 19 -64 -1 -27 -20 37 -29 35 -9 -3 19 -38 19 -64 -1 -27 -23
42 -25 32 -4 -15 22 -48 28 -85 10 -58 -8 11 -9 7 -4 -15 4 -23 3 -27 -5 -15
-9 12 -10 9 -6 -15 4 -25 2 -23 -14 13 -11 23 -23 42 -26 42 -3 0 -1 -9 5 -19
16 -30 12 -47 -6 -25 -15 18 -15 18 -5 -3 16 -33 13 -50 -5 -27 -15 18 -15 18
-5 -3 13 -27 14 -46 2 -39 -5 4 -7 -4 -3 -16 3 -13 1 -19 -5 -15 -7 5 -9 -1
-5 -15 3 -14 1 -19 -6 -14 -8 5 -8 -1 -1 -24 14 -38 21 -39 13 -2 -4 21 -3 24
5 12 9 -12 10 -8 5 15 -4 23 -3 27 5 15 9 -12 10 -8 6 15 -5 26 -5 27 6 11 9
-15 8 -31 -7 -78 l-18 -59 -12 28 -13 28 5 -30 c4 -24 3 -27 -5 -15 -9 12 -10
9 -6 -15 6 -29 5 -29 -15 8 -27 49 -36 48 -10 -3 11 -21 20 -45 20 -52 -1 -7
-10 4 -21 25 -11 20 -22 37 -24 37 -3 0 4 -18 15 -40 11 -21 20 -45 20 -52 -1
-7 -10 4 -20 24 -11 20 -24 39 -30 43 -5 3 2 -14 15 -37 14 -24 25 -50 24 -58
0 -8 -7 -3 -15 13 -20 37 -29 35 -9 -3 19 -38 19 -64 -1 -27 -20 37 -29 35 -9
-3 19 -38 19 -64 -1 -27 -20 37 -29 35 -9 -3 19 -38 19 -64 -1 -27 -20 37 -29
35 -9 -3 19 -38 19 -64 -1 -27 -23 42 -25 32 -4 -15 22 -48 28 -85 10 -58 -8
11 -9 7 -4 -15 4 -23 3 -27 -5 -15 -9 12 -10 9 -6 -15 4 -25 2 -23 -14 13 -11
23 -23 42 -26 42 -3 0 -1 -9 5 -19 16 -30 12 -47 -6 -25 -15 18 -15 18 -5 -3
16 -33 13 -50 -5 -27 -15 18 -15 18 -5 -3 13 -27 14 -46 2 -39 -5 4 -7 -4 -3
-16 3 -13 1 -19 -5 -15 -7 5 -9 -1 -5 -15 3 -14 1 -19 -6 -14 -8 5 -8 -1 -1
-24 14 -38 21 -39 13 -2 -4 21 -3 24 5 12 9 -12 10 -8 5 15 -4 23 -3 27 5 15
9 -12 10 -8 6 15 -5 26 -5 27 6 11 9 -15 8 -31 -7 -78 l-18 -59 -12 28 -13 28
5 -30 c4 -24 3 -27 -5 -15 -9 12 -10 9 -6 -15 6 -29 5 -29 -15 8 -27 49 -36
48 -10 -3 11 -21 20 -45 20 -52 -1 -7 -10 4 -21 25 -11 20 -22 37 -24 37 -3 0
4 -18 15 -40 11 -21 20 -45 20 -52 -1 -7 -10 4 -20 24 -11 20 -24 39 -30 43
-5 3 2 -14 15 -37 14 -24 25 -50 24 -58 0 -8 -7 -3 -15 13 -20 37 -29 35 -9
-3 19 -38 19 -64 -1 -27 -20 37 -29 35 -9 -3 19 -38 19 -64 -1 -27 -20 37 -29
35 -9 -3 19 -38 19 -64 -1 -27 -20 37 -29 35 -9 -3 19 -38 19 -64 -1 -27 -23
42 -25 32 -4 -16 22 -47 28 -84 10 -57 -8 11 -9 7 -4 -15 4 -23 3 -27 -5 -15
-9 12 -10 9 -6 -15 4 -25 2 -23 -14 13 -11 23 -23 42 -26 42 -3 0 -1 -9 5 -19
16 -30 12 -47 -6 -25 -15 18 -15 18 -5 -3 16 -33 13 -50 -5 -27 -15 18 -15 18
-5 -3 13 -27 14 -46 2 -39 -5 4 -7 -4 -3 -16 3 -13 1 -19 -5 -15 -7 5 -9 -1
-5 -15 3 -14 1 -19 -6 -14 -8 5 -8 -1 -1 -24 14 -38 21 -39 13 -2 -4 21 -3 24
5 12 9 -12 10 -8 5 15 -4 23 -3 27 5 15 9 -12 10 -8 6 15 -5 26 -5 27 6 11 9
-15 8 -31 -7 -78 l-18 -59 -12 28 -13 28 5 -30 c4 -24 3 -27 -5 -15 -9 12 -10
9 -6 -15 6 -29 5 -29 -15 8 -27 49 -36 48 -10 -3 11 -21 20 -45 20 -52 -1 -7
-10 4 -21 25 -11 20 -22 37 -24 37 -3 0 4 -18 15 -40 11 -21 20 -45 20 -52 -1
-7 -10 4 -20 24 -11 20 -24 39 -30 43 -5 3 2 -14 15 -37 14 -24 25 -50 24 -58
0 -8 -7 -3 -15 13 -20 37 -29 35 -9 -3 19 -38 19 -64 -1 -27 -20 37 -29 35 -9
-3 19 -38 19 -64 -1 -27 -20 37 -29 35 -9 -3 19 -38 19 -64 -1 -27 -20 37 -29
35 -9 -3 19 -38 19 -64 -1 -27 -23 42 -25 32 -4 -15 22 -48 28 -85 10 -58 -8
11 -9 7 -4 -15 4 -23 3 -27 -5 -15 -9 12 -10 9 -6 -15 4 -25 2 -23 -14 13 -11
23 -23 42 -26 42 -3 0 -1 -9 5 -19 16 -30 12 -47 -6 -25 -15 18 -15 18 -5 -3
16 -33 13 -50 -5 -27 -15 18 -15 18 -5 -3 13 -27 14 -46 2 -39 -5 4 -7 -4 -3
-16 3 -13 1 -19 -5 -15 -7 5 -9 -1 -5 -15 3 -14 1 -19 -6 -14 -8 5 -8 -1 -1
-24 14 -38 21 -39 13 -2 -4 21 -3 24 5 12 9 -12 10 -8 5 15 -4 23 -3 27 5 15
9 -12 10 -8 6 15 -5 26 -5 27 6 11 9 -15 8 -31 -7 -78 l-18 -59 -12 28 -13 28
5 -30 c4 -24 3 -27 -5 -15 -9 12 -10 9 -6 -15 6 -29 5 -29 -15 8 -27 49 -36
48 -10 -3 11 -21 20 -45 20 -52 -1 -7 -10 4 -21 25 -11 20 -22 37 -24 37 -3 0
4 -18 15 -40 11 -21 20 -45 20 -52 -1 -7 -10 4 -20 24 -11 20 -24 39 -30 43
-5 3 2 -14 15 -37 14 -24 25 -50 24 -58 0 -8 -7 -3 -15 13 -20 37 -29 35 -9
-3 19 -38 19 -64 -1 -27 -20 37 -29 35 -9 -3 19 -38 19 -64 -1 -27 -20 37 -29
35 -9 -3 19 -38 19 -64 -1 -27 -20 37 -29 35 -9 -3 19 -38 19 -64 -1 -27 -23
42 -25 32 -4 -15 22 -48 28 -85 10 -58 -8 11 -9 7 -4 -15 4 -23 3 -27 -5 -15
-9 12 -10 9 -6 -15 4 -25 2 -23 -14 13 -11 23 -23 42 -26 42 -3 0 -1 -9 5 -19
16 -30 12 -47 -6 -25 -15 18 -15 18 -5 -3 16 -33 13 -50 -5 -27 -15 18 -15 18
-5 -3 13 -27 14 -46 2 -39 -5 4 -7 -4 -3 -16 3 -13 1 -19 -5 -15 -7 5 -9 -1
-5 -15 3 -14 1 -19 -6 -14 -8 5 -8 -1 -1 -24 14 -38 21 -39 13 -2 -4 21 -3 24
5 12 9 -12 10 -8 5 15 -4 23 -3 27 5 15 9 -12 10 -8 6 15 -5 26 -5 27 6 11 9
-15 8 -31 -7 -78 l-18 -59 -12 28 -13 28 5 -30 c4 -24 3 -27 -5 -15 -9 12 -10
9 -6 -15 6 -29 5 -29 -15 7 -27 50 -36 49 -10 -2 11 -21 20 -45 20 -52 -1 -7
-10 4 -21 24 -11 21 -22 38 -24 38 -3 0 4 -18 15 -40 11 -21 20 -45 20 -52 -1
-7 -10 4 -20 24 -11 20 -24 39 -30 43 -5 3 2 -14 15 -37 14 -24 25 -50 24 -58
0 -8 -7 -3 -15 13 -20 37 -29 35 -9 -3 19 -38 19 -64 -1 -27 -20 37 -29 35 -9
-3 19 -38 19 -64 -1 -27 -20 37 -29 35 -9 -3 19 -38 19 -64 -1 -27 -20 37 -29
35 -9 -3 19 -38 19 -64 -1 -27 -23 42 -25 32 -4 -15 22 -48 28 -85 10 -58 -8
11 -9 7 -4 -15 4 -23 3 -27 -5 -15 -9 12 -10 9 -6 -15 4 -25 2 -23 -14 13 -11
23 -23 42 -26 42 -3 0 -1 -9 5 -19 16 -30 12 -47 -6 -25 -15 18 -15 18 -5 -3
16 -33 13 -50 -5 -27 -15 18 -15 18 -5 -3 13 -27 14 -46 2 -39 -5 4 -7 -4 -3
-16 3 -13 1 -19 -5 -15 -7 5 -9 -1 -5 -15 3 -15 2 -19 -7 -14 -8 5 -7 -4 3
-29 20 -47 20 -81 1 -40 l-14 30 5 -30 c4 -24 3 -27 -5 -15 -9 12 -10 8 -5
-15 4 -23 3 -27 -5 -15 -9 12 -10 8 -5 -15 4 -23 3 -27 -5 -15 -9 12 -10 8 -5
-15 4 -24 3 -27 -6 -15 -10 13 -11 12 -6 -3 3 -11 9 -31 12 -45 4 -20 0 -17
-16 13 -11 22 -17 31 -14 20 3 -11 8 -29 11 -40 4 -17 3 -17 -6 -5 -9 12 -10
9 -6 -15 6 -29 5 -29 -15 8 -24 44 -38 51 -15 7 21 -41 18 -50 -6 -20 l-21 25
16 -27 c18 -30 21 -52 7 -44 -5 4 -7 -4 -3 -16 3 -13 1 -19 -5 -15 -7 5 -9 -1
-6 -15 6 -22 6 -22 -16 2 l-21 25 17 -32 c10 -18 20 -27 24 -21 12 19 20 -28
9 -56 -18 -49 -9 -52 10 -4 11 26 485 1471 1055 3212 1025 3131 1036 3165
1021 3198 l-15 33 5 -30z"/>
<path d="M8068 1602 c3 -10 1 -13 -6 -8 -8 5 -10 2 -6 -8 4 -11 0 -14 -15 -11
-14 2 -18 -1 -15 -10 4 -10 0 -13 -15 -10 -12 2 -19 0 -16 -5 3 -5 15 -7 26
-5 15 3 19 0 15 -11 -4 -9 -2 -12 5 -8 7 4 10 1 7 -6 -2 -7 -12 -14 -22 -16
-11 -1 -16 2 -13 10 3 7 0 13 -7 13 -6 0 -12 -8 -12 -18 0 -10 4 -15 9 -12 5
3 8 0 5 -8 -3 -8 -10 -15 -16 -15 -7 -1 -15 -3 -19 -4 -5 -1 -11 -2 -14 -2 -4
1 -6 -6 -5 -16 0 -9 -5 -17 -11 -18 -7 -1 -15 -3 -18 -4 -3 -1 -8 -3 -12 -4
-5 -1 -14 -5 -20 -9 -7 -5 -13 -5 -13 -1 0 4 -8 0 -18 -9 -10 -10 -22 -15 -25
-12 -4 3 -5 2 -2 -2 3 -3 -2 -15 -12 -25 -9 -10 -12 -18 -8 -18 4 0 0 -10 -11
-22 l-19 -23 22 19 c13 10 21 22 18 26 -5 7 49 63 59 61 3 -1 8 0 11 0 3 1 13
2 23 3 9 1 23 5 30 9 17 11 15 -8 -3 -23 -8 -7 -15 -9 -15 -5 0 5 -9 0 -20
-10 -11 -10 -20 -14 -20 -10 0 5 -13 -4 -30 -20 -16 -15 -27 -31 -25 -35 3 -4
-4 -15 -15 -25 -11 -10 -17 -21 -14 -26 2 -5 -13 -20 -36 -35 -22 -15 -40 -29
-40 -31 0 -12 70 39 131 95 77 72 95 72 22 1 -59 -56 -103 -90 -174 -130 -30
-17 -45 -28 -34 -24 54 17 139 79 222 161 51 51 94 87 96 80 2 -6 20 15 41 47
42 66 55 94 38 83 -17 -10 -15 6 3 30 17 22 20 38 5 29 -13 -8 -13 1 -1 24 7
13 6 18 -4 18 -7 0 -11 -7 -7 -15z"/>
</g>
</svg>
