<?xml version="1.0" standalone="no"?>
<!DOCTYPE svg PUBLIC "-//W3C//DTD SVG 20010904//EN"
 "http://www.w3.org/TR/2001/REC-SVG-20010904/DTD/svg10.dtd">
<svg version="1.0" xmlns="http://www.w3.org/2000/svg"
 width="594.000000pt" height="569.000000pt" viewBox="0 0 594.000000 569.000000"
 preserveAspectRatio="xMidYMid meet">
<metadata>
Created by potrace 1.15, written by Peter Selinger 2001-2017
</metadata>
<g transform="translate(0.000000,569.000000) scale(0.100000,-0.100000)"
fill="#ffffff" stroke="none">
<path d="M1300 5148 c-59 -40 -61 -59 -58 -543 3 -395 4 -432 21 -456 34 -51
37 -51 389 -50 l238 1 32 29 33 29 5 144 5 143 370 0 c331 0 376 -2 430 -18
226 -70 416 -219 518 -407 42 -77 87 -206 87 -249 l0 -31 -955 0 c-932 0 -957
0 -995 -20 -64 -33 -59 -21 -226 -474 -50 -133 -54 -174 -23 -202 20 -18 57
-19 1118 -24 l1096 -5 0 -170 0 -170 -1030 -5 c-1119 -5 -1044 -2 -1112 -57
-21 -18 -63 -102 -82 -166 -5 -18 -39 -112 -75 -211 -72 -194 -78 -234 -44
-266 22 -20 28 -20 1175 -20 l1153 0 0 -33 c0 -77 -74 -248 -154 -354 -73 -96
-217 -207 -342 -261 -129 -56 -191 -63 -569 -60 l-340 3 -5 142 c-5 140 -6
143 -33 170 l-27 28 -243 5 c-133 3 -266 3 -295 0 -63 -7 -99 -37 -112 -96
-12 -51 -12 -827 0 -879 6 -26 21 -50 42 -68 l33 -28 720 3 c704 3 722 4 819
26 296 67 587 222 774 414 256 262 383 499 442 826 12 65 23 127 26 139 4 21
7 22 202 25 l199 3 37 28 c38 29 67 83 101 187 10 30 21 60 25 65 4 6 16 37
28 70 11 33 37 105 56 159 38 104 43 135 26 166 -19 35 -64 40 -372 40 l-298
0 2 173 3 172 255 5 c274 5 287 8 338 62 12 13 35 62 51 109 16 46 57 158 90
249 74 199 81 236 53 270 l-20 25 -389 5 -388 5 -3 30 c-15 155 -81 384 -153
530 -52 104 -69 131 -155 245 -196 260 -452 441 -769 544 -218 71 -184 69
-975 73 l-715 4 -35 -23z"/>
</g>
</svg>
