<?xml version="1.0" standalone="no"?>
<!DOCTYPE svg PUBLIC "-//W3C//DTD SVG 20010904//EN"
 "http://www.w3.org/TR/2001/REC-SVG-20010904/DTD/svg10.dtd">
<svg version="1.0" xmlns="http://www.w3.org/2000/svg"
 width="224.000000pt" height="225.000000pt" viewBox="0 0 224.000000 225.000000"
 preserveAspectRatio="xMidYMid meet">
<metadata>
Created by potrace 1.15, written by Peter Selinger 2001-2017
</metadata>
<g transform="translate(0.000000,225.000000) scale(0.100000,-0.100000)"
fill="#ffffff" stroke="none">
<path d="M1270 1599 c-104 -43 -128 -175 -45 -248 34 -29 57 -36 115 -31 117
9 150 197 47 265 -32 21 -86 27 -117 14z"/>
<path d="M936 1265 c-162 -58 -191 -299 -47 -400 39 -27 50 -30 121 -30 71 0
82 3 121 30 60 42 94 111 94 190 -2 157 -145 262 -289 210z m126 -126 c27 -15
51 -74 43 -110 -8 -37 -59 -79 -95 -79 -35 0 -86 41 -94 76 -9 34 10 90 37
109 25 18 80 20 109 4z"/>
<path d="M1535 1261 c-22 -10 -52 -31 -67 -47 -49 -52 -58 -90 -58 -244 l0
-140 55 0 55 0 0 119 c0 66 4 131 10 145 16 42 47 66 86 66 84 0 104 -40 104
-210 l0 -120 55 0 55 0 0 133 c0 153 -8 187 -52 241 -59 72 -160 95 -243 57z"/>
<path d="M525 1253 c-78 -41 -118 -108 -118 -198 0 -67 18 -112 66 -163 41
-43 109 -62 219 -62 l88 0 0 60 0 60 -84 0 c-45 0 -97 5 -115 11 -52 18 -76
86 -50 143 18 40 66 56 163 56 l86 0 0 55 0 55 -112 0 c-83 -1 -121 -5 -143
-17z"/>
<path d="M1260 1050 l0 -220 55 0 55 0 0 220 0 220 -55 0 -55 0 0 -220z"/>
</g>
</svg>
