<?xml version="1.0" encoding="utf-8"?>
<!-- Generator: Adobe Illustrator 21.1.0, SVG Export Plug-In . SVG Version: 6.00 Build 0)  -->
<svg version="1.1"
	 id="Layer_1" text-rendering="geometricPrecision" shape-rendering="geometricPrecision" image-rendering="optimizeQuality"
	 xmlns="http://www.w3.org/2000/svg" xmlns:xlink="http://www.w3.org/1999/xlink" x="0px" y="0px" viewBox="0 0 256.7 32.2"
	 style="enable-background:new 0 0 256.7 32.2;" xml:space="preserve">
<style type="text/css">
	.st0{fill:#37556E;stroke:#FFFFFF;stroke-width:1886.27;}
	.st1{fill:#FFFFFF;}
	.st2{fill:#3D3D3D;}
	.st3{fill:#B50000;}
	.st4{fill:#C10000;}
</style>
<g id="Layer_x0020_1">
	<path class="st0" d="M216.6,31.8c-18.4-1.1-49.3-4.7-111.6-8.8c-36.5-2.4-82.1,2.2-104.6,4.6C77.9,6.5,154.3,2,216.6,31.8z"/>
	<path class="st0" d="M0.3,27.7V4.2c0-2.1,1.7-3.8,3.8-3.8h161c8.9,8.3,14.9,14.9,19,20.6C128.7,3.9,66.4,9.6,0.3,27.7z"/>
	<path class="st0" d="M165.1,0.3h87.4c2.1,0,3.8,1.7,3.8,3.8v24c-8.8,1.8-23,2.8-32.8,3.3c-13.3,0.7-25.7-6.9-39.4-10.6
		C180,15.3,174,8.6,165.1,0.3z"/>
	<path class="st1" d="M212.4,15.8c0.3,0,0.6,0.3,0.6,0.6s-0.3,0.6-0.6,0.6s-0.6-0.3-0.6-0.6C211.8,16.1,212.1,15.8,212.4,15.8z"/>
	<path class="st2" d="M208.2,23.2v-2.6h0.3v2.3h1.7v0.3C210.2,23.2,208.2,23.2,208.2,23.2z M212.3,23.2v-2.6h0.3v2.6H212.3z
		 M215.5,23.2v-2.3h-1.1v-0.3h2.5v0.3h-1.1v2.3H215.5z M218.7,23.2v-2.6h2.1v0.3H219v0.8h1.1V22H219v1h1.8v0.3L218.7,23.2
		L218.7,23.2z M226.7,22.4l0.3,0.2c-0.1,0.2-0.3,0.4-0.5,0.5s-0.4,0.2-0.7,0.2c-0.4,0-0.7-0.1-1-0.4s-0.4-0.6-0.4-1s0.1-0.7,0.4-1
		c0.3-0.3,0.6-0.4,1-0.4c0.2,0,0.5,0.1,0.7,0.2s0.4,0.3,0.5,0.5l-0.3,0.2c-0.1-0.2-0.2-0.3-0.4-0.4s-0.3-0.1-0.5-0.1
		c-0.3,0-0.5,0.1-0.7,0.3c-0.2,0.2-0.3,0.5-0.3,0.8s0.1,0.6,0.3,0.8c0.2,0.2,0.4,0.3,0.7,0.3c0.2,0,0.4-0.1,0.6-0.2
		S226.6,22.6,226.7,22.4z M229.2,23.2v-2.6h0.3v2.3h1.7v0.3C231.2,23.2,229.2,23.2,229.2,23.2z M233.2,23.2v-2.6h0.3v2.6H233.2z
		 M236,23.2v-2.6h2.1v0.3h-1.7v0.8h1.1V22h-1.1v1h1.9v0.3L236,23.2L236,23.2z M240.3,23.2v-2.6h0.2l1.7,2v-2h0.3v2.6h-0.2l-1.7-2v2
		H240.3z M245.3,23.2v-2.3h-1.1v-0.3h2.5v0.3h-1.1v2.3H245.3z"/>
</g>
<g>
	<path class="st3" d="M211.4,8.9c-0.1-0.2-0.3-0.3-0.6-0.3c-1.7,0-3.4,0-5,0c-0.4,0-0.7,0.2-0.9,0.5c-0.4,0.8-0.9,1.5-1.3,2.3
		c-0.2,0.3-0.4,0.6-0.5,1c0,0,0,0-0.1,0.1c0,0,0,0-0.1-0.1c-0.2-0.3-0.4-0.6-0.5-1c-0.4-0.8-0.9-1.5-1.3-2.3
		c-0.2-0.4-0.4-0.5-0.9-0.5c-1.7,0-3.4,0-5,0c-0.3,0-0.5,0.1-0.6,0.3s-0.1,0.5,0,0.7c0.2,0.3,0.4,0.6,0.6,1c0.5,0.9,1,1.8,1.6,2.7
		c0.5,0.9,1.1,1.9,1.6,2.8c0.5,0.8,1,1.7,1.5,2.5c0.1,0.2,0.3,0.3,0.6,0.3s0.4-0.1,0.6-0.4c0.1-0.2,0.3-0.5,0.4-0.7
		c0.4-0.8,0.9-1.5,1.3-2.3c0.1-0.2,0.2-0.3,0.3-0.5c0.1,0.2,0.2,0.4,0.3,0.5c0.4,0.8,0.9,1.5,1.3,2.3c0.1,0.2,0.3,0.5,0.4,0.7
		c0.1,0.2,0.3,0.4,0.6,0.4s0.5-0.1,0.6-0.3c0.5-0.8,1-1.7,1.5-2.5c0.5-0.9,1.1-1.9,1.6-2.8c0.5-0.9,1-1.8,1.6-2.7
		c0.2-0.3,0.4-0.7,0.6-1C211.6,9.4,211.6,9.1,211.4,8.9z M202.2,13.9c-0.5,0.9-1,1.7-1.5,2.6c-0.1,0.2-0.2,0.3-0.3,0.5
		c-1.4-2.4-2.7-4.7-4.1-7.1c0.1,0,0.1,0,0.2,0c1.1,0,2.2,0,3.4,0c0.1,0,0.2,0,0.3,0.1c0.6,1,1.2,2.1,1.8,3.1
		c0.1,0.2,0.2,0.3,0.3,0.5C202.2,13.7,202.2,13.8,202.2,13.9z M205.6,17c-0.1-0.2-0.2-0.4-0.3-0.5c-0.5-0.9-1-1.7-1.5-2.6
		c0-0.1,0-0.2,0-0.2c0.1-0.2,0.2-0.3,0.3-0.5c0.6-1,1.2-2.1,1.8-3.1C206,10,206,10,206.2,10c1.1,0,2.2,0,3.4,0c0.1,0,0.1,0,0.2,0
		C208.3,12.3,207,14.6,205.6,17z"/>
</g>
<g>
	<path class="st2" d="M214.6,11.4h1.3l0.7,3.7l1.2-3.7h1.1l1.3,3.7l0.6-3.7h1.4l-1.4,5.3h-1.3l-1.2-3.8l-1.3,3.8h-1.3L214.6,11.4z"
		/>
	<path class="st2" d="M222.9,15c0-1.1,0.8-1.6,2.3-1.6c0.4,0,0.7,0,1.1,0.1v-0.4c0-0.5-0.3-0.7-1-0.7c-0.6,0-1.2,0.1-1.9,0.3v-1.1
		c0.7-0.2,1.3-0.3,1.9-0.3c1.6,0,2.4,0.6,2.4,1.7v3.6h-0.8l-0.5-0.5c-0.5,0.3-1,0.5-1.5,0.5C223.6,16.7,222.9,16.1,222.9,15z
		 M225.2,14.4c-0.6,0-1,0.2-1,0.7s0.3,0.7,0.8,0.7c0.4,0,0.9-0.1,1.2-0.4v-0.8C226,14.4,225.6,14.4,225.2,14.4z"/>
	<path class="st2" d="M233.6,16.3c0,1.5-0.9,2.3-2.8,2.3c-0.7,0-1.2-0.1-1.7-0.3v-1.1c0.5,0.2,1.1,0.3,1.7,0.3c1,0,1.4-0.4,1.4-1.2
		c-0.4,0.2-0.8,0.3-1.3,0.3c-1.6,0-2.4-0.9-2.4-2.6s0.9-2.6,2.8-2.6c0.6,0,1.4,0.1,2.2,0.2v4.7H233.6z M232.3,12.6
		c-0.2-0.1-0.5-0.1-0.9-0.1c-0.9,0-1.4,0.5-1.4,1.5s0.4,1.5,1.2,1.5c0.4,0,0.8-0.1,1.1-0.3L232.3,12.6L232.3,12.6z"/>
	<path class="st2" d="M237.1,11.4c1.6,0,2.4,0.8,2.4,2.5c0,0.2,0,0.4,0,0.7H236c0,0.7,0.5,1.1,1.6,1.1c0.5,0,1.1-0.1,1.6-0.2v1.1
		c-0.5,0.1-1,0.2-1.7,0.2c-1.9,0-2.9-0.9-2.9-2.7C234.6,12.3,235.5,11.4,237.1,11.4z M236,13.6h2.3l0,0c0-0.7-0.4-1.1-1.1-1.1
		C236.4,12.4,236,12.8,236,13.6z"/>
	<path class="st2" d="M240.5,16.7v-5.3h1l0.2,0.7c0.5-0.5,1-0.7,1.5-0.7v1.1c-0.5,0-0.9,0.2-1.3,0.6v3.6H240.5z"/>
	<path class="st4" d="M244,16.7v-5.3h1l0.2,0.7c0.5-0.5,1-0.7,1.5-0.7v1.1c-0.5,0-0.9,0.2-1.3,0.6v3.6H244z"/>
</g>
</svg>
