<?xml version="1.0" standalone="no"?>
<!DOCTYPE svg PUBLIC "-//W3C//DTD SVG 20010904//EN"
 "http://www.w3.org/TR/2001/REC-SVG-20010904/DTD/svg10.dtd">
<svg version="1.0" xmlns="http://www.w3.org/2000/svg"
 width="2000.000000pt" height="2186.000000pt" viewBox="0 0 2000.000000 2186.000000"
 preserveAspectRatio="xMidYMid meet">
<metadata>
Created by potrace 1.15, written by Peter Selinger 2001-2017
</metadata>
<g transform="translate(0.000000,2186.000000) scale(0.100000,-0.100000)"
fill="#0D47A1" stroke="none">
<path d="M559 21756 c-258 -258 -262 -950 -7 -1209 l53 -54 325 -7 c579 -11
896 -45 1183 -126 605 -170 949 -552 1127 -1255 60 -237 95 -459 132 -855 17
-175 24 -14328 8 -14665 -66 -1370 -404 -2030 -1170 -2283 -190 -63 -420 -106
-705 -132 -103 -9 -648 -29 -843 -30 l-64 0 -59 -59 c-68 -68 -117 -161 -150
-286 -31 -114 -31 -335 0 -450 32 -122 90 -232 155 -293 l55 -52 5144 0 5145
0 54 54 c125 125 188 329 175 570 -10 198 -74 363 -179 462 l-53 51 -175 6
c-96 4 -231 7 -300 7 -69 0 -197 5 -285 10 -580 37 -949 135 -1243 332 -102
68 -284 252 -354 358 -263 397 -393 949 -428 1820 -16 387 -8 14582 8 14805
46 634 104 954 223 1241 265 640 825 874 1993 833 1087 -37 1932 -333 2583
-903 325 -286 576 -617 792 -1046 426 -849 607 -1894 571 -3295 -10 -406 -20
-593 -45 -880 -104 -1166 -375 -2014 -833 -2605 -90 -116 -287 -316 -405 -411
-318 -257 -686 -433 -1143 -547 -497 -124 -1066 -162 -1979 -132 -411 14 -664
37 -945 86 l-35 6 3 -94 c14 -498 158 -870 443 -1143 46 -44 115 -102 152
-129 68 -49 69 -49 235 -78 366 -63 335 -60 957 -65 2034 -16 3599 202 4829
674 1080 415 1905 1040 2556 1938 819 1131 1280 2647 1280 4215 0 376 -26 681
-86 1010 -196 1071 -669 1987 -1408 2725 -550 549 -1134 923 -1905 1219 -1052
404 -2340 631 -3950 696 -164 6 -2219 10 -5820 10 l-5567 0 -45 -44z"/>
</g>
</svg>
