<?xml version="1.0" standalone="no"?>
<!DOCTYPE svg PUBLIC "-//W3C//DTD SVG 20010904//EN"
 "http://www.w3.org/TR/2001/REC-SVG-20010904/DTD/svg10.dtd">
<svg version="1.0" xmlns="http://www.w3.org/2000/svg"
 width="254.000000pt" height="320.000000pt" viewBox="0 0 254.000000 320.000000"
 preserveAspectRatio="xMidYMid meet">
<metadata>
Created by potrace 1.15, written by Peter Selinger 2001-2017
</metadata>
<g transform="translate(0.000000,320.000000) scale(0.100000,-0.100000)"
fill="#0D47A1" stroke="none">
<path d="M290 1991 l0 -1211 -140 0 -140 0 0 -110 0 -110 140 0 140 0 0 -70 0
-70 -140 0 -140 0 0 -110 0 -110 140 0 140 0 0 -100 0 -100 220 0 219 0 3 97
3 98 387 5 387 5 -91 108 -90 107 -299 0 -299 0 0 70 0 70 240 0 241 0 -93
110 -93 110 -143 0 c-106 0 -144 3 -147 13 -3 7 -4 127 -3 267 l3 255 545
-652 545 -652 358 0 c196 -1 357 1 357 4 0 2 -252 300 -561 661 -308 360 -559
658 -557 660 3 2 47 15 99 28 324 85 554 274 654 539 68 183 74 486 13 686
-100 326 -354 518 -780 587 -83 13 -202 17 -610 21 l-508 5 0 -1211z m1055
836 c219 -62 364 -205 411 -403 22 -96 15 -283 -15 -375 -40 -126 -132 -233
-260 -303 -122 -66 -342 -100 -611 -94 l-135 3 -3 598 -2 599 277 -4 c221 -4
290 -8 338 -21z"/>
</g>
</svg>
