<?xml version="1.0" standalone="no"?>
<!DOCTYPE svg PUBLIC "-//W3C//DTD SVG 20010904//EN"
 "http://www.w3.org/TR/2001/REC-SVG-20010904/DTD/svg10.dtd">
<svg version="1.0" xmlns="http://www.w3.org/2000/svg"
 width="1200.000000pt" height="1200.000000pt" viewBox="0 0 1200.000000 1200.000000"
 preserveAspectRatio="xMidYMid meet">
<metadata>
Created by potrace 1.15, written by Peter Selinger 2001-2017
</metadata>
<g transform="translate(0.000000,1200.000000) scale(0.100000,-0.100000)"
fill="#0D47A1" stroke="none">
<path d="M4335 10279 c-941 -70 -1652 -328 -2154 -783 -412 -372 -646 -857
-711 -1471 -14 -129 -14 -503 0 -625 82 -730 381 -1224 960 -1587 381 -239
846 -411 1515 -562 1269 -286 1678 -404 2044 -591 187 -95 297 -183 400 -320
153 -203 219 -442 208 -755 -10 -308 -96 -518 -296 -728 -229 -239 -586 -407
-1036 -487 -402 -72 -957 -79 -1450 -19 -743 90 -1519 335 -2295 724 l-130 65
0 -748 0 -749 147 -46 c863 -272 1691 -436 2458 -487 195 -13 771 -13 950 0
878 63 1559 271 2095 638 602 412 938 954 1032 1662 16 126 16 546 0 680 -87
701 -380 1195 -920 1551 -341 226 -798 417 -1364 573 -200 55 -277 73 -788
187 -791 176 -1197 296 -1515 449 -162 78 -264 147 -365 250 -101 102 -167
208 -209 335 -40 121 -51 195 -51 351 0 410 161 720 486 937 346 230 818 340
1519 354 932 18 1772 -157 2576 -538 92 -43 169 -79 173 -79 3 0 6 308 6 684
l0 683 -152 56 c-613 221 -1296 350 -2093 397 -198 11 -880 11 -1040 -1z"/>
</g>
</svg>
