<?xml version="1.0" standalone="no"?>
<!DOCTYPE svg PUBLIC "-//W3C//DTD SVG 20010904//EN"
 "http://www.w3.org/TR/2001/REC-SVG-20010904/DTD/svg10.dtd">
<svg version="1.0" xmlns="http://www.w3.org/2000/svg"
 width="190.000000pt" height="228.000000pt" viewBox="0 0 190.000000 228.000000"
 preserveAspectRatio="xMidYMid meet">
<metadata>
Created by potrace 1.15, written by Peter Selinger 2001-2017
</metadata>
<g transform="translate(0.000000,228.000000) scale(0.100000,-0.100000)"
fill="#0D47A1" stroke="none">
<path d="M120 1741 l0 -341 45 0 c33 0 50 6 65 22 29 31 63 108 95 213 15 50
35 106 45 125 37 73 124 133 223 154 26 6 27 9 27 66 0 33 0 63 0 68 0 4 -87
10 -192 13 -106 4 -219 10 -250 14 l-58 8 0 -342z"/>
<path d="M1715 2070 c-33 -4 -131 -8 -217 -9 l-158 -1 0 -68 0 -69 63 -17
c132 -36 176 -88 242 -286 26 -78 59 -156 76 -179 27 -37 33 -41 74 -41 25 0
45 5 45 10 0 6 0 157 0 338 l1 327 -33 1 c-18 1 -60 -2 -93 -6z"/>
<path d="M750 1193 c0 -863 0 -867 -21 -911 -24 -48 -58 -69 -161 -97 l-58
-16 0 -54 0 -55 470 0 470 0 0 55 c0 62 -4 65 -104 87 -60 13 -100 49 -115
104 -7 27 -11 309 -11 897 l0 857 -235 0 -235 0 0 -867z"/>
</g>
</svg>
